<?xml version="1.0" encoding="utf-8"?>
<!-- Generator: Adobe Illustrator 26.1.0, SVG Export Plug-In . SVG Version: 6.00 Build 0)  -->
<svg version="1.1" xmlns="http://www.w3.org/2000/svg" xmlns:xlink="http://www.w3.org/1999/xlink" x="0px" y="0px"
	 viewBox="0 0 1292.2 314" style="enable-background:new 0 0 1292.2 314;" xml:space="preserve">
<style type="text/css">
	.st0{fill:#FFBC2C;}
	.st1{fill:#545454;}
	.st2{fill:#3F0EC6;}
	.st3{fill:#F90018;}
</style>
<g id="Layer_2">
	<rect class="st0" width="133.2" height="314"/>
	<rect x="1159.9" y="-1" class="st0" width="133.2" height="314"/>
</g>
<g id="Layer_1">
	<g id="Layer_2_00000103973713920940785940000013503120933697574565_">
		<rect x="124.8" class="st0" width="1062" height="314"/>
	</g>
	<g id="Layer_1_00000029018066708674354140000005317431440943324588_">
		<g>
			<path class="st1" d="M303.6,101.8c-12.4,11.9-25.6,23.8-37.9,36.7c-12.5,13.3-22.3,28.6-28.5,46c-1.2,3.4-0.7,5.4,2.5,7.2
				c6.7,3.9,13.2,8.2,20,12.4c25.3-28.7,50.8-56.5,86.1-72.7c-32.7,25.4-62.3,53.9-85.1,89.6c-5.9-3.8-11.8-7.5-17.6-11.2
				c-4.9-3.1-9.9-6.2-14.7-9.5c-2.3-1.6-4-1.6-6.3-0.1c-2.7,1.7-5.5,3.1-8.4,4.4c-24.8,10.4-46.3,3.8-60.2-19.2
				c-3.7-6.1-6.5-13.2-8.2-20.2c-2.5-10.1,0.5-19.5,7.6-27.3c1.9-2.1,2.5-3.7,1.5-6.5c-5.9-18-2.7-34.5,9.1-49.3
				c4-5.1,9.1-8.6,15.6-10.1c1.3-0.3,3-1.9,3.4-3.2c7.5-25.3,24.9-39.9,50-45.8c15.3-3.6,27-0.6,40.2,9.6c1.4-1.2,2.8-2.4,4.3-3.7
				c22.5-18.8,57.9-6.6,63.7,22.2c2.8,14,0.1,27.2-6.7,39.6c-1.5,2.7-1.5,4.7-0.1,7.3c3.3,6.3,6.4,12.7,8.9,19.5
				c-6.6-7.8-13.2-15.6-19.6-23.6c-0.7-0.9-0.1-3,0.1-4.5c1.2-8,3.5-16,3.5-24c0-5.3-2.2-11.2-4.9-16c-8.5-15-22.9-18.1-36.7-7.8
				c-5.5,4.1-10.1,9.5-15.3,14.5c-14.8-17.5-33.1-22.3-53-13.9c-18.1,7.6-22.5,25-24.5,43.4c-12.8,0.7-21.2,8-25.3,20.4
				c-3.9,11.9-1.8,23.3,3.7,34.2c-15.4,14.9-13.2,35.8,4.8,48.3c15.2,10.6,38.7,9.4,50.2-8.5c9.1-14.1,19.2-27.6,29.8-40.6
				c12.7-15.5,28.6-27.4,46.2-36.9C302.7,102.1,303.6,101.8,303.6,101.8z"/>
			<path class="st1" d="M252.5,74.8c7,12.8,13.9,25.6,21.1,38.8c-2.2,1.6-4.1,3.1-6.4,4.8c-7.7-13.8-12.8-28-16-43
				C251.6,75.2,252,75,252.5,74.8z"/>
			<path class="st1" d="M207.3,117.6c15,3.5,29,9.4,42.7,17.3c-1.7,2.2-3.1,4-4.9,6.4c-12.8-7.5-25.6-15-38.4-22.5
				C207,118.4,207.2,118,207.3,117.6z"/>
			<path class="st1" d="M198,156c11.7,0.1,23.3,0.2,36.2,0.4c-2.1,3.7-3.3,5.9-4.6,8.2c-10.7-2.3-21.3-4.6-31.8-6.9
				C197.9,157.1,197.9,156.6,198,156z"/>
			<path class="st1" d="M289.1,102.1c0.3-11.7,0.6-23.3,0.9-35c0.6,0,1.1-0.1,1.7-0.1c1.9,10.2,4,20.3,5.2,30.5
				c0.2,1.6-3.6,3.7-5.5,5.6C290.6,102.8,289.8,102.4,289.1,102.1z"/>
		</g>
		<g>
			<path class="st2" d="M409,170.9c-1,1-1.5,1.6-1.7,2c-0.2,0.3-0.4,0.7-0.8,1.3c-0.3,0.6-0.7,1.5-1.2,2.6s-0.9,2.5-1.4,4.3
				s-1,3.9-1.6,6.5c-0.9,4.4-1.9,9.2-3.1,14.5s-2.3,10.8-3.5,16.4s-2.4,11.3-3.6,16.9c-1.2,5.7-2.4,11-3.4,16.1l-3.5,12.8h-0.8
				c-1.5-6.4-2.9-12.6-4.2-18.5c-1.3-5.9-2.5-11.6-3.7-17s-2.3-10.7-3.4-15.9c-1.1-5.1-2.2-10.2-3.4-15.2c-0.9,4.1-1.8,8.4-2.8,12.9
				s-2,9.1-3,13.7c-1,4.6-2,9.2-3,13.7s-2,8.9-2.9,13l-3.6,13.1h-1c-1.7-7.2-3.3-14.1-4.9-20.6c-1.5-6.5-3-12.8-4.4-18.8
				s-2.8-11.9-4.1-17.5c-1.3-5.7-2.6-11.3-4-16.9c-0.4-1.7-0.7-3.2-1-4.4c-0.3-1.2-0.6-2.4-0.8-3.5c-0.2-1.1-0.5-2.1-0.8-3.1
				c-0.3-1-0.6-2-0.9-3.1c-0.2-0.5-0.4-1.2-0.7-2c-0.3-0.8-0.7-1.6-1.3-2.3c-0.6-0.8-1.2-1.4-2-2c-0.8-0.6-1.8-0.9-3-1v-1.5h23.4
				v1.3c-0.3,0-0.8,0.1-1.4,0.3c-0.7,0.2-1.4,0.5-2.1,0.9c-0.7,0.4-1.3,1.1-1.9,2s-0.8,2.1-0.8,3.6c0,0.8,0.3,2.6,0.9,5.6
				c0.6,2.9,1.3,6.4,2.3,10.6c0.9,4.1,2,8.7,3.1,13.6c1.1,4.9,2.3,9.8,3.4,14.5c1.1,4.8,2.2,9.2,3.2,13.4c1,4.1,1.8,7.6,2.4,10.2
				c0.2-0.7,0.6-2.6,1.2-5.6s1.5-6.7,2.5-11.2c1-4.5,2.1-9.6,3.3-15.2s2.4-11.6,3.6-17.7c-0.8-3.6-1.6-6.7-2.2-9.4
				c-0.7-2.7-1.4-5.4-2.2-8c-0.2-0.7-0.5-1.5-0.9-2.3c-0.4-0.8-0.9-1.6-1.5-2.3c-0.6-0.8-1.4-1.4-2.4-1.9c-0.9-0.5-2.1-0.8-3.4-0.9
				v-1.5h26v1.3c-0.3,0.1-0.9,0.2-1.8,0.4c-0.9,0.2-1.7,0.5-2.6,1c-0.9,0.5-1.6,1.2-2.3,2.1c-0.7,0.9-1,2-1,3.3
				c0,0.5,0.3,2.3,0.9,5.4c0.6,3.1,1.4,6.8,2.3,11.2s2,9.2,3.1,14.4c1.2,5.2,2.3,10.1,3.3,14.9s2,9.1,2.9,12.8s1.5,6.5,1.9,8.2
				c0.2-0.6,0.5-1.9,0.9-3.9s0.9-4.5,1.6-7.4c0.6-2.9,1.3-6.1,2.1-9.7c0.8-3.6,1.5-7.2,2.2-10.9s1.5-7.4,2.2-11.1
				c0.8-3.7,1.4-7.2,2-10.4c0.8-4.1,1.2-7.1,1.3-9c0.1-1.9,0.2-3.2,0.2-4.1c0-1.3-0.2-2.4-0.8-3.3s-1.1-1.6-1.8-2.1s-1.5-1-2.3-1.3
				c-0.8-0.3-1.6-0.5-2.2-0.6v-1.3h18.2v1.3C411.1,169.3,409.9,169.9,409,170.9z"/>
			<path class="st2" d="M435.6,264v-1.5c1.5-0.2,2.7-0.5,3.7-0.9c1-0.4,1.5-1.3,1.5-2.7v-33.4c0-2.6-0.1-5-0.3-7.2s-0.6-4.1-1.2-5.8
				c-0.6-1.6-1.4-2.9-2.4-3.8c-1-0.9-2.3-1.3-3.8-1.3c-2,0-3.7,0.6-5.1,1.7s-2.5,2.7-3.3,4.7c-0.1,0.3-0.3,0.8-0.5,1.7
				c-0.2,0.9-0.3,1.6-0.3,2.3v41.1c0,0.8,0.1,1.4,0.4,1.9c0.3,0.5,0.6,0.8,1.1,1c0.4,0.2,0.9,0.4,1.5,0.5s1.1,0.2,1.7,0.4v1.3h-16.5
				v-1.3c1.3-0.2,2.4-0.5,3.4-1s1.5-1.6,1.5-3.3v-76c0-0.7,0-1.2-0.1-1.6s-0.3-0.8-0.7-1.2c-0.4-0.6-1-1.2-1.8-1.8
				c-0.8-0.6-1.5-1.2-2.2-1.9V175l11.1-8.2h0.7l-0.2,46.4l0.2,0.1c0.4-1.2,1-2.7,1.8-4.3c0.8-1.6,1.8-3.1,3-4.6
				c1.2-1.4,2.6-2.6,4.2-3.7c1.6-1,3.3-1.5,5.2-1.5c1.8,0,3.4,0.5,4.6,1.5s2.2,2.4,3,4.3c0.7,1.8,1.3,4,1.6,6.5
				c0.3,2.5,0.5,5.2,0.5,8.2v39.5c0,0.6,0.2,1.2,0.5,1.6c0.3,0.5,0.8,0.8,1.2,1c0.5,0.2,1,0.4,1.6,0.5c0.5,0.1,1.1,0.2,1.6,0.3v1.2
				L435.6,264L435.6,264z"/>
			<path class="st2" d="M491.3,255.9c-0.4,1.6-1,3.1-1.7,4.4s-1.6,2.3-2.5,2.9s-2,1-3.2,1c-1.9,0-3.5-0.9-5-2.7
				c-1.5-1.8-2.2-4.9-2.2-9.4l-0.2-0.1c-0.4,1.2-1,2.4-1.8,3.9c-0.8,1.4-1.6,2.8-2.6,4c-1,1.2-2.2,2.2-3.4,3s-2.6,1.1-4.1,1.1
				c-0.9,0-1.8-0.2-2.7-0.6c-0.9-0.4-1.7-1.1-2.5-2.1c-0.8-1-1.4-2.3-1.8-4c-0.5-1.6-0.7-3.6-0.7-5.9c0-2.5,0.6-4.9,1.9-7.2
				c1.2-2.3,2.8-4.4,4.6-6.3s3.4-3.5,4.9-4.8s2.6-2.5,3.7-3.4c1-0.9,2-1.7,2.8-2.4s1.5-1.3,2-1.8v-13.8c0-0.2-0.1-0.6-0.3-1.3
				s-0.5-1.4-1-2.1s-1.1-1.4-2-1.9c-0.8-0.6-1.9-0.9-3.2-0.9c-0.9,0-1.8,0.2-2.6,0.7c-0.9,0.5-1.6,1.1-2.3,1.9
				c-0.7,0.8-1.2,1.5-1.6,2.3c-0.4,0.8-0.6,1.4-0.6,1.9v6c0,1.2-0.4,2.4-1.2,3.3c-0.8,1-1.7,1.5-2.6,1.5c-0.9,0-1.6-0.5-2.3-1.5
				c-0.6-1-1-2.2-1-3.5c0-1.1,0.2-2.1,0.5-2.9s0.8-1.7,1.2-2.4c0.5-0.7,1-1.3,1.6-1.9c0.6-0.5,1.1-1,1.5-1.5
				c1.4-1.3,2.9-2.6,4.4-3.9c1.5-1.2,2.9-2.3,4.3-3.2c1.4-0.9,2.6-1.6,3.7-2.1c1.1-0.5,2.1-0.8,2.8-0.8c1.4,0,2.8,0.6,4.1,1.8
				c1.3,1.2,2.2,2.7,2.7,4.5c0.2,0.6,0.4,1.7,0.4,3.3c0,1.6,0.1,3.1,0.1,4.6c0,3.2,0,6.1,0,8.7s0,5.1,0,7.5s0,4.9,0,7.4
				c0,2.5,0,5.3,0,8.4c0,4,0.4,6.7,1.3,8c0.9,1.3,1.8,1.9,2.9,1.9c1.3,0,2.2-0.4,2.8-1.3c0.6-0.9,1-1.9,1.2-3.3h0.5
				C492,252.6,491.7,254.2,491.3,255.9z M476.6,227.6c-1,1.2-2.2,2.4-3.7,3.7c-1.5,1.3-3,2.7-4.4,4.2c-1.4,1.5-2.6,3.2-3.6,5
				s-1.5,3.9-1.5,6.2s0.5,4.4,1.5,6.3c1,1.9,2.3,2.8,3.9,2.8c1.4,0,2.7-0.3,3.8-0.8c1.1-0.5,2.1-1.6,3.1-3.1c0.7-1,1-2.2,1-3.8
				L476.6,227.6L476.6,227.6z"/>
			<path class="st2" d="M517.1,208.9h-12.6v35.2c0,4.6,0.6,7.9,1.8,9.9c1.2,2.1,2.8,3.1,4.7,3.1c1.6,0,2.9-0.4,4-1.3
				c1-0.9,2-2.2,2.7-3.9l0.5,0.4c-0.3,1.3-0.8,2.7-1.4,4.2c-0.6,1.5-1.4,2.8-2.3,4c-1,1.2-2.1,2.1-3.4,2.8c-1.3,0.7-2.8,1-4.6,1
				c-1.2,0-2.3-0.3-3.3-0.9c-1.1-0.6-2-1.4-2.8-2.5c-0.8-1.1-1.5-2.4-2-3.8c-0.5-1.4-0.8-2.8-0.8-4.2c0-8.4,0-16.3,0.1-23.9
				c0-7.5,0.1-14.2,0.1-20.1h-6.1v-1.5l12-18.3h0.7v11.6h15.4L517.1,208.9z"/>
			<path class="st2" d="M528.7,184.1c-0.6,1.8-1.3,3.3-2.3,4.6s-2,2.2-3.3,2.9s-2.6,1.1-3.9,1.1v-1.3c1.9-0.6,3.4-1.6,4.5-3
				c1.1-1.4,1.6-3.5,1.6-6.4c0-0.8-0.1-1.5-0.2-2.2c-0.1-0.7-0.2-1.2-0.3-1.7c-0.5,0.6-1,1.1-1.7,1.3c-0.6,0.2-1.1,0.3-1.6,0.3
				c-1.1,0-2-0.6-2.5-1.8c-0.6-1.2-0.9-2.5-0.9-3.8c0-2.2,0.5-3.9,1.5-5.1c1-1.2,2.2-1.7,3.4-1.7c1.9,0,3.4,1.1,4.6,3.2
				s1.8,4.7,1.8,7.6C529.5,180.4,529.2,182.4,528.7,184.1z"/>
			<path class="st2" d="M557.3,253.5c-0.9,2.5-2,4.6-3.4,6.2c-1.4,1.6-3.1,2.8-4.9,3.5c-1.9,0.7-3.8,1.1-5.9,1.1
				c-2.4,0-4.7-0.4-6.9-1.1c-2.2-0.7-4.1-1.7-6-3.1v-17.7h0.7c0.4,2.1,1,4.4,1.7,6.8c0.7,2.4,1.5,4.6,2.4,6.6s2.1,3.7,3.4,4.9
				s2.9,1.9,4.7,1.9c2.6,0,4.8-1.2,6.3-3.7c1.6-2.5,2.4-6.2,2.4-11.3c0-2.8-0.5-5.1-1.6-6.9c-1.1-1.8-2.5-3.1-4.4-3.7
				c-1.5-0.4-2.9-0.9-4.3-1.5c-1.4-0.5-2.6-1.1-3.7-1.7c-2.1-1.2-3.8-3.2-5.1-6c-1.3-2.9-1.9-6.3-1.9-10.3c0-2.8,0.4-5.3,1.1-7.5
				c0.7-2.2,1.7-4.1,2.9-5.8c1.2-1.6,2.6-2.8,4.2-3.7c1.6-0.9,3.3-1.3,5.1-1.3c2.3,0,4.4,0.3,6.1,1c1.8,0.7,3.5,1.5,5.1,2.5l1,16.6
				l-0.7,0.3c-0.8-2.7-1.5-5.1-2.3-7.4c-0.8-2.3-1.6-4.2-2.6-5.9s-2-2.9-3.2-3.8s-2.6-1.3-4.1-1.3c-0.9,0-1.9,0.3-2.8,0.8
				c-0.9,0.5-1.7,1.3-2.4,2.3c-0.7,1-1.3,2.3-1.7,3.9s-0.7,3.4-0.7,5.4c0,3.3,0.6,5.7,1.7,7.1c1.2,1.4,2.6,2.5,4.4,3.2
				c1.2,0.4,2.5,0.9,4,1.4c1.4,0.5,2.7,1,3.7,1.4c2.5,1,4.6,3,6.4,6.1c1.7,3.1,2.6,7,2.6,11.5C558.6,247.9,558.1,251,557.3,253.5z"
				/>
			<path class="st2" d="M636.4,198.7c-0.7-4.3-1.8-8.3-3.2-12s-3.1-7-5.1-9.8c-2-2.8-4.2-4.9-6.6-6.6s-5.1-2.4-7.8-2.4
				c-3.8,0-7.2,1.4-10.2,4.1c-3,2.8-5.5,6.4-7.5,11c-2,4.6-3.6,9.7-4.6,15.4c-1.1,5.8-1.6,11.7-1.6,17.7c0,6.4,0.6,12.4,1.7,18.1
				s2.8,10.5,4.8,14.6c2.1,4.1,4.7,7.4,7.6,9.8c3,2.4,6.3,3.6,10,3.6c2.9,0,5.6-0.9,8.1-2.5c2.5-1.7,4.8-3.9,6.7-6.7
				c2-2.8,3.6-5.9,5-9.6c1.3-3.6,2.3-7.3,2.8-11.2h1l-0.2,29.4h-1c-0.7-1.5-1.4-2.9-2.1-4.1c-0.7-1.2-1.2-1.9-1.5-1.9
				c-0.1,0-0.6,0.5-1.5,1.4c-0.9,0.9-2.2,2-3.8,3.1c-1.7,1.1-3.7,2.1-6,2.9c-2.4,0.9-5.1,1.3-8.2,1.3c-5.1,0-9.8-1.2-13.9-3.5
				c-4.2-2.4-7.7-5.7-10.6-10c-2.9-4.3-5.1-9.5-6.7-15.5s-2.3-12.6-2.3-19.9c0-1.6,0.1-3.4,0.2-5.5c0.1-2.1,0.4-4.2,0.8-6.6
				c0.4-2.3,0.9-4.8,1.5-7.3s1.5-5.1,2.5-7.7c1.2-3,2.6-5.9,4.3-8.7c1.7-2.8,3.7-5.2,6-7.3c2.3-2.1,5-3.8,7.9-5s6.2-1.9,9.9-1.9
				c3.3,0,6.2,0.5,8.7,1.5s4.6,2.1,6.2,3.2c1.7,1.2,2.9,2.2,3.8,3.2c0.9,1,1.4,1.5,1.5,1.5s0.3-0.2,0.6-0.6c0.3-0.4,0.6-0.9,1-1.5
				c0.4-0.6,0.7-1.2,1.1-2s0.8-1.5,1.1-2.3h0.9v30L636.4,198.7z"/>
			<path class="st2" d="M667,264v-1.5c1.5-0.2,2.7-0.5,3.7-0.9c1-0.4,1.5-1.3,1.5-2.7v-33.4c0-2.6-0.1-5-0.3-7.2
				c-0.2-2.2-0.6-4.1-1.2-5.8c-0.6-1.6-1.4-2.9-2.4-3.8c-1-0.9-2.3-1.3-3.8-1.3c-2,0-3.7,0.6-5.1,1.7s-2.5,2.7-3.3,4.7
				c-0.1,0.3-0.3,0.8-0.5,1.7c-0.2,0.9-0.3,1.6-0.3,2.3v41.1c0,0.8,0.1,1.4,0.4,1.9c0.3,0.5,0.6,0.8,1.1,1c0.4,0.2,0.9,0.4,1.5,0.5
				s1.1,0.2,1.7,0.4v1.3h-16.5v-1.3c1.3-0.2,2.4-0.5,3.4-1s1.5-1.6,1.5-3.3v-76c0-0.7,0-1.2-0.1-1.6s-0.3-0.8-0.7-1.2
				c-0.4-0.6-1-1.2-1.8-1.8c-0.8-0.6-1.5-1.2-2.2-1.9V175l11.1-8.2h0.7l-0.2,46.4l0.2,0.1c0.4-1.2,1-2.7,1.8-4.3s1.8-3.1,3-4.6
				c1.2-1.4,2.6-2.6,4.2-3.7c1.6-1,3.3-1.5,5.2-1.5c1.8,0,3.3,0.5,4.6,1.5c1.2,1,2.2,2.4,3,4.3c0.7,1.8,1.3,4,1.6,6.5
				s0.5,5.2,0.5,8.2v39.5c0,0.6,0.2,1.2,0.5,1.6c0.3,0.5,0.8,0.8,1.2,1c0.5,0.2,1,0.4,1.6,0.5c0.5,0.1,1.1,0.2,1.6,0.3v1.2L667,264
				L667,264z"/>
			<path class="st2" d="M722.7,255.9c-0.4,1.6-1,3.1-1.7,4.4s-1.6,2.3-2.5,2.9c-1,0.7-2,1-3.2,1c-1.9,0-3.5-0.9-5-2.7
				c-1.5-1.8-2.2-4.9-2.2-9.4l-0.2-0.1c-0.4,1.2-1,2.4-1.8,3.9c-0.8,1.4-1.6,2.8-2.7,4c-1,1.2-2.2,2.2-3.4,3
				c-1.2,0.8-2.6,1.1-4.1,1.1c-0.9,0-1.8-0.2-2.7-0.6c-0.9-0.4-1.7-1.1-2.5-2.1c-0.8-1-1.4-2.3-1.8-4c-0.5-1.6-0.7-3.6-0.7-5.9
				c0-2.5,0.6-4.9,1.9-7.2c1.2-2.3,2.8-4.4,4.6-6.3s3.4-3.5,4.8-4.8s2.6-2.5,3.7-3.4c1-0.9,2-1.7,2.8-2.4c0.8-0.7,1.5-1.3,2-1.8
				v-13.8c0-0.2-0.1-0.6-0.3-1.3s-0.5-1.4-1-2.1s-1.1-1.4-2-1.9s-1.9-0.9-3.2-0.9c-0.9,0-1.8,0.2-2.6,0.7c-0.9,0.5-1.6,1.1-2.3,1.9
				c-0.7,0.8-1.2,1.5-1.6,2.3c-0.4,0.8-0.6,1.4-0.6,1.9v6c0,1.2-0.4,2.4-1.2,3.3s-1.7,1.5-2.6,1.5c-0.9,0-1.7-0.5-2.3-1.5
				c-0.6-1-1-2.2-1-3.5c0-1.1,0.2-2.1,0.5-2.9s0.8-1.7,1.2-2.4c0.5-0.7,1-1.3,1.6-1.9c0.6-0.5,1.1-1,1.5-1.5
				c1.4-1.3,2.9-2.6,4.4-3.9c1.5-1.2,2.9-2.3,4.3-3.2c1.3-0.9,2.6-1.6,3.7-2.1c1.1-0.5,2.1-0.8,2.8-0.8c1.4,0,2.8,0.6,4.1,1.8
				c1.3,1.2,2.2,2.7,2.7,4.5c0.2,0.6,0.4,1.7,0.4,3.3s0.1,3.1,0.1,4.6c0,3.2,0,6.1,0,8.7c0,2.6,0,5.1,0,7.5s0,4.9,0,7.4
				c0,2.5,0,5.3,0,8.4c0,4,0.4,6.7,1.3,8c0.9,1.3,1.8,1.9,2.9,1.9c1.3,0,2.2-0.4,2.8-1.3s1-1.9,1.2-3.3h0.5
				C723.4,252.6,723.2,254.2,722.7,255.9z M708,227.6c-1,1.2-2.2,2.4-3.7,3.7s-3,2.7-4.3,4.2c-1.4,1.5-2.6,3.2-3.7,5
				s-1.5,3.9-1.5,6.2s0.5,4.4,1.5,6.3c1,1.9,2.3,2.8,3.9,2.8c1.4,0,2.7-0.3,3.8-0.8c1.1-0.5,2.1-1.6,3.1-3.1c0.7-1,1-2.2,1-3.8
				L708,227.6L708,227.6z"/>
			<path class="st2" d="M751.4,211.4c-0.7,1.3-1.5,1.9-2.5,1.9c-0.9,0-1.6-0.2-2.1-0.7c-0.5-0.5-1-1.1-1.4-1.7s-0.8-1.2-1.2-1.7
				s-1-0.7-1.8-0.7c-0.7,0-1.3,0.4-2,1.1s-1.2,1.7-1.8,2.9c-0.5,1.2-1,2.5-1.5,3.9s-0.8,2.9-1.2,4.2v38.5c0.2,0.8,0.5,1.4,1.1,1.9
				c0.5,0.5,1.2,0.8,1.9,0.9c0.7,0.2,1.4,0.3,2.2,0.3c0.8,0,1.4,0.2,2,0.3v1.3h-18.6v-1.3c1.3-0.2,2.4-0.6,3.3-1.2
				c0.9-0.6,1.4-1.6,1.4-3.1v-45.2c0-0.7,0-1.2-0.1-1.6s-0.3-0.8-0.7-1.2c-0.5-0.4-1.1-1-1.7-1.7s-1.3-1.2-2-1.7v-0.8l10.9-6.8h0.5
				l-0.2,18.6h0.2c0.3-1.1,0.7-2.6,1.3-4.7c0.6-2.1,1.4-4.1,2.3-6.2c0.9-2.1,2.1-3.9,3.4-5.4s2.8-2.3,4.6-2.3c1.4,0,2.6,0.7,3.5,2
				c1,1.3,1.5,3,1.5,5.1C752.5,208.4,752.1,210.1,751.4,211.4z"/>
			<path class="st2" d="M752.3,264v-1.5c2.5-0.3,4.2-0.7,5.1-1.3s1.2-1.6,1.2-3v-76.9c0-0.7,0-1.2-0.1-1.6s-0.3-0.8-0.7-1.2
				c-0.5-0.4-1.2-1.1-2.2-2.1s-1.8-1.6-2.5-2.1v-0.8l11.9-6.3h0.6v91.6c0,0.9,0.1,1.6,0.4,2s0.6,0.8,1.1,0.9s1.1,0.3,1.9,0.3
				c0.8,0,1.7,0.2,2.7,0.3v1.5L752.3,264L752.3,264z"/>
			<path class="st2" d="M773.6,264v-1.3c0.7-0.1,1.3-0.2,2-0.3c0.7-0.1,1.3-0.4,1.8-0.7c0.5-0.3,1-0.7,1.3-1.3
				c0.4-0.5,0.5-1.2,0.5-2v-45.9c0-0.7,0-1.3-0.1-1.9s-0.3-1-0.7-1.5c-0.5-0.5-1.1-1.1-1.8-1.6s-1.4-1-2.2-1.5v-0.8l11.2-5.9h0.5
				v59.8c0.1,0.9,0.3,1.5,0.7,1.9c0.4,0.4,0.8,0.7,1.3,0.9s1,0.3,1.6,0.3c0.6,0,1.2,0.2,1.7,0.3v1.3L773.6,264L773.6,264z
				 M785.5,183.4c-0.9,1.4-1.9,2.1-3.2,2.1c-1.2,0-2.3-0.7-3.2-2.1c-0.9-1.4-1.3-3.1-1.3-5.1c0-2.1,0.4-3.8,1.3-5.1s1.9-2,3.2-2
				s2.3,0.7,3.2,2s1.3,3,1.3,5.1C786.8,180.3,786.3,182,785.5,183.4z"/>
			<path class="st2" d="M827.6,250.3c-0.8,2.4-1.8,4.7-3.2,6.8c-1.3,2-2.9,3.8-4.8,5.1c-1.8,1.3-3.9,2-6.2,2c-2.8,0-5.4-0.9-7.7-2.5
				s-4.3-4.1-5.9-7.2c-1.6-3.1-2.9-6.7-3.8-10.8c-0.9-4.1-1.3-8.5-1.3-13.2c0-3.8,0.4-7.5,1.2-11.2c0.8-3.7,2-7,3.5-10
				c1.5-2.9,3.4-5.3,5.6-7.2c2.2-1.8,4.6-2.7,7.3-2.7c2.2,0,4.2,0.4,6.1,1.3s3.6,2.2,5,4.1s2.6,4.1,3.4,6.9c0.9,2.8,1.4,6,1.6,9.8
				h-26.6c0,0.7,0,1.5-0.1,2.5c-0.1,0.9-0.1,1.9-0.1,2.9c0,3.8,0.3,7.3,1,10.8c0.7,3.4,1.6,6.5,2.9,9.1s2.9,4.7,4.8,6.2
				c1.9,1.5,4.2,2.3,6.7,2.3c2.8,0,5.2-1.1,7.3-3.4c2.1-2.3,3.4-5.1,4.1-8.4l0.7,0.3C828.8,245.6,828.3,247.8,827.6,250.3z
				 M818.1,205.2c-1.4-2.4-3.3-3.6-5.7-3.6c-1.5,0-2.9,0.7-4.2,2.2s-2.3,3.2-3.2,5.1c-0.9,2-1.6,3.9-2.1,5.9s-0.8,3.6-0.9,4.6
				c1.3,0,2.4,0,3.4,0s2,0,2.9-0.1c1,0,2-0.1,3-0.1c1,0,2.2-0.1,3.5-0.1c0.8,0,1.6,0,2.3-0.1c0.7-0.1,1.3-0.3,1.9-0.7
				c0.4-0.7,0.7-1.4,0.9-2c0.2-0.6,0.3-1.6,0.3-2.8C820.2,210.4,819.5,207.6,818.1,205.2z"/>
			<path class="st2" d="M906,198.7c-0.7-4.3-1.8-8.3-3.2-12s-3.1-7-5.1-9.8c-2-2.8-4.2-4.9-6.6-6.6s-5.1-2.4-7.8-2.4
				c-3.8,0-7.2,1.4-10.2,4.1c-3,2.8-5.5,6.4-7.5,11s-3.6,9.7-4.7,15.4s-1.6,11.7-1.6,17.7c0,6.4,0.6,12.4,1.7,18.1
				s2.8,10.5,4.8,14.6s4.7,7.4,7.6,9.8c3,2.4,6.3,3.6,10,3.6c2.9,0,5.6-0.9,8.1-2.5s4.8-3.9,6.7-6.7c2-2.8,3.6-5.9,5-9.6
				c1.3-3.6,2.3-7.3,2.8-11.2h1l-0.2,29.4h-1c-0.7-1.5-1.4-2.9-2.1-4.1c-0.7-1.2-1.2-1.9-1.5-1.9c-0.1,0-0.6,0.5-1.5,1.4
				c-0.9,0.9-2.2,2-3.8,3.1c-1.7,1.1-3.7,2.1-6,2.9c-2.4,0.9-5.1,1.3-8.2,1.3c-5.1,0-9.8-1.2-13.9-3.5c-4.2-2.4-7.7-5.7-10.6-10
				c-2.9-4.3-5.1-9.5-6.7-15.5s-2.3-12.6-2.3-19.9c0-1.6,0.1-3.4,0.2-5.5c0.1-2.1,0.4-4.2,0.8-6.6c0.4-2.3,0.9-4.8,1.5-7.3
				s1.5-5.1,2.5-7.7c1.2-3,2.6-5.9,4.3-8.7c1.7-2.8,3.7-5.2,6-7.3c2.3-2.1,5-3.8,7.9-5s6.2-1.9,9.9-1.9c3.3,0,6.2,0.5,8.7,1.5
				c2.5,1,4.6,2.1,6.2,3.2s2.9,2.2,3.8,3.2c0.9,1,1.4,1.5,1.5,1.5s0.3-0.2,0.6-0.6c0.3-0.4,0.6-0.9,1-1.5c0.4-0.6,0.7-1.2,1.1-2
				s0.8-1.5,1.1-2.3h0.9v30L906,198.7z"/>
			<path class="st2" d="M950.2,244.1c-1,4.1-2.5,7.6-4.2,10.6c-1.8,3-3.8,5.4-6.2,7.1c-2.3,1.7-4.8,2.5-7.4,2.5
				c-2.2,0-4.4-0.6-6.7-1.9c-2.3-1.2-4.5-3.2-6.4-6s-3.6-6.2-4.8-10.4s-1.9-9.2-1.9-14.9c0-4.1,0.5-8.1,1.5-11.9
				c1-3.8,2.3-7.2,4.1-10.2c1.7-2.9,3.8-5.3,6.3-7.1c2.5-1.8,5.2-2.7,8.2-2.7c2.2,0,4.5,0.7,6.7,2s4.3,3.3,6.2,5.9
				c1.8,2.6,3.4,5.9,4.6,9.9s1.8,8.6,1.8,14C951.8,235.8,951.3,240.1,950.2,244.1z M943.5,221.3c-0.4-3.5-1.1-6.7-2-9.6
				s-2.2-5.4-3.7-7.3c-1.5-1.9-3.5-2.9-5.7-2.9c-1.8,0-3.5,0.9-4.9,2.7c-1.4,1.8-2.7,4.1-3.7,7c-1,2.9-1.8,6.1-2.3,9.8
				c-0.5,3.6-0.8,7.3-0.8,11c0,4.1,0.2,8,0.7,11.6s1.2,6.9,2.2,9.7c1,2.8,2.3,5,3.8,6.7s3.4,2.5,5.6,2.5s4-1,5.4-3.1
				c1.5-2.1,2.7-4.7,3.6-7.9c0.9-3.2,1.6-6.6,2-10.2c0.4-3.7,0.6-7,0.6-10.2C944.1,228.1,943.9,224.8,943.5,221.3z"/>
			<path class="st2" d="M992.6,244.1c-1,4.1-2.5,7.6-4.2,10.6c-1.8,3-3.8,5.4-6.2,7.1c-2.3,1.7-4.8,2.5-7.4,2.5
				c-2.2,0-4.4-0.6-6.7-1.9c-2.3-1.2-4.5-3.2-6.4-6s-3.6-6.2-4.8-10.4s-1.9-9.2-1.9-14.9c0-4.1,0.5-8.1,1.5-11.9
				c1-3.8,2.3-7.2,4.1-10.2c1.7-2.9,3.8-5.3,6.3-7.1c2.5-1.8,5.2-2.7,8.2-2.7c2.2,0,4.5,0.7,6.7,2s4.3,3.3,6.2,5.9
				c1.8,2.6,3.4,5.9,4.6,9.9s1.8,8.6,1.8,14C994.2,235.8,993.7,240.1,992.6,244.1z M985.9,221.3c-0.4-3.5-1.1-6.7-2-9.6
				s-2.2-5.4-3.7-7.3c-1.5-1.9-3.5-2.9-5.7-2.9c-1.8,0-3.5,0.9-4.9,2.7c-1.4,1.8-2.7,4.1-3.7,7c-1,2.9-1.8,6.1-2.3,9.8
				c-0.5,3.6-0.8,7.3-0.8,11c0,4.1,0.2,8,0.7,11.6s1.2,6.9,2.2,9.7c1,2.8,2.3,5,3.8,6.7s3.4,2.5,5.6,2.5s4-1,5.4-3.1
				c1.5-2.1,2.7-4.7,3.6-7.9c0.9-3.2,1.6-6.6,2-10.2c0.4-3.7,0.6-7,0.6-10.2C986.5,228.1,986.3,224.8,985.9,221.3z"/>
			<path class="st2" d="M1019.5,264v-1.3c1.1-0.1,2-0.3,2.8-0.5c0.8-0.3,1.1-1,1.1-2.3c0-0.5-0.4-1.8-1.1-3.7
				c-0.8-1.9-1.6-4.1-2.7-6.6s-2.1-5.1-3.2-7.7c-1.1-2.6-2.1-4.8-2.9-6.6c-0.9-2-1.7-2.9-2.4-2.9c-0.3,0-0.5,0-0.7,0.1
				c-0.2,0.1-0.4,0.2-0.6,0.3v26.2c0,0.8,0.1,1.4,0.4,1.9c0.3,0.5,0.6,0.8,1.1,1c0.4,0.2,0.9,0.4,1.5,0.5s1.1,0.2,1.7,0.4v1.3h-16.5
				v-1.3c1.3-0.2,2.4-0.5,3.4-1s1.5-1.6,1.5-3.3v-75.6c0-0.7,0-1.3-0.1-1.7c-0.1-0.4-0.3-0.8-0.7-1.3c-0.4-0.4-1-1-1.8-1.7
				c-0.8-0.7-1.6-1.3-2.3-1.9v-0.8l11-8.2h0.7v63.9c1.6-2.1,3.3-4.6,5.2-7.3c1.9-2.7,3.6-5.4,5.2-7.9c1.6-2.5,2.9-4.8,4-6.7
				c1.1-1.9,1.6-3.2,1.6-3.8s-0.2-1.1-0.7-1.5c-0.4-0.4-1-0.7-1.7-1c-0.7-0.3-1.4-0.5-2.2-0.7c-0.8-0.2-1.5-0.3-2.2-0.3v-1.3h20.3
				v1.3c-0.2,0-0.7,0.1-1.6,0.2c-0.9,0.1-1.9,0.4-3.1,0.9c-1.2,0.5-2.5,1.2-3.8,2.1c-1.4,0.9-2.6,2.1-3.8,3.8
				c-1.8,2.4-3.5,4.9-5.2,7.4c-1.7,2.5-3.3,4.9-4.8,7.2c2.4,6,4.7,11.6,6.9,16.8c2.2,5.2,4,9.5,5.6,12.9c1.9,4.1,3.6,7,4.9,8.6
				c0.4,0.2,1.1,0.4,2.1,0.5c0.9,0.2,1.9,0.3,3,0.3v1.3L1019.5,264L1019.5,264z"/>
			<path class="st2" d="M1037.8,264v-1.3c0.7-0.1,1.3-0.2,2-0.3c0.7-0.1,1.3-0.4,1.8-0.7c0.5-0.3,1-0.7,1.3-1.3
				c0.4-0.5,0.5-1.2,0.5-2v-45.9c0-0.7,0-1.3-0.1-1.9c-0.1-0.5-0.3-1-0.7-1.5c-0.5-0.5-1.1-1.1-1.8-1.6c-0.7-0.5-1.4-1-2.2-1.5v-0.8
				l11.2-5.9h0.5v59.8c0.1,0.9,0.3,1.5,0.7,1.9c0.4,0.4,0.8,0.7,1.3,0.9s1,0.3,1.6,0.3c0.6,0,1.2,0.2,1.7,0.3v1.3L1037.8,264
				L1037.8,264z M1049.7,183.4c-0.9,1.4-1.9,2.1-3.2,2.1c-1.2,0-2.3-0.7-3.2-2.1c-0.9-1.4-1.3-3.1-1.3-5.1c0-2.1,0.4-3.8,1.3-5.1
				s1.9-2,3.2-2s2.3,0.7,3.2,2s1.3,3,1.3,5.1C1050.9,180.3,1050.5,182,1049.7,183.4z"/>
			<path class="st2" d="M1082.9,264v-1.5c1.5-0.2,2.7-0.5,3.6-0.9c0.9-0.4,1.3-1.3,1.3-2.7v-33.7c0-5.2-0.6-9.3-1.8-12.5
				c-1.2-3.2-3.3-4.8-6.1-4.8c-1.8,0-3.3,0.6-4.6,1.9c-1.2,1.2-2.6,3.1-4.1,5.5v43.9c0.1,0.9,0.3,1.5,0.6,1.9s0.6,0.7,1,0.9
				s0.8,0.3,1.3,0.3c0.5,0,1,0.2,1.6,0.3v1.3h-16v-1.3c1.3-0.2,2.4-0.6,3.3-1.2c0.9-0.6,1.4-1.6,1.4-3.1v-46c0-0.7,0-1.2-0.1-1.6
				c-0.1-0.4-0.3-0.8-0.7-1.2c-0.5-0.4-1.1-1-1.7-1.5c-0.7-0.6-1.3-1.1-2-1.5v-0.8l10.9-6.3h0.5v14.4l0.2,0.1
				c0.6-1.5,1.4-3.1,2.3-4.9c0.9-1.7,1.9-3.3,3.1-4.8c1.2-1.4,2.4-2.6,3.8-3.6s2.8-1.4,4.3-1.4c3.2,0,5.7,1.9,7.4,5.8
				c1.7,3.8,2.6,8.8,2.6,14.9v39.3c0,0.6,0.2,1.2,0.5,1.6c0.4,0.5,0.8,0.8,1.3,1s1,0.4,1.6,0.5c0.6,0.1,1.1,0.2,1.6,0.3v1.2
				L1082.9,264L1082.9,264z"/>
			<path class="st2" d="M1144.1,210.3c-0.6,1-1.3,1.5-2.1,1.5c-0.3,0-0.8-0.2-1.5-0.7c-0.7-0.4-1.4-1-2.2-1.6
				c-0.8-0.6-1.6-1.3-2.5-2.1c-0.8-0.8-1.6-1.4-2.2-2.1l-0.3,0.5c0.8,2.1,1.5,4,2.1,5.8c0.6,1.8,0.9,4.1,0.9,7
				c0,7.1-1.5,12.3-4.6,15.9c-3,3.5-7.2,5.3-12.6,5.3c-0.8,0-1.6-0.1-2.4-0.3c-0.8-0.2-1.8-0.3-2.9-0.3c-1.8,0.2-3.2,0.9-4.2,2
				c-1,1.2-1.6,2.6-1.6,4.4c0,1.4,0.3,2.6,0.8,3.6c0.6,0.9,1.2,1.7,2.1,2.2c0.8,0.5,1.7,0.9,2.7,1.1c1,0.2,2,0.3,2.9,0.3h13.3
				c1.9,0,3.7,0.5,5.2,1.5c1.5,1,2.9,2.3,4,4c1.1,1.7,1.9,3.6,2.5,5.8c0.6,2.2,0.9,4.6,0.9,7.3c0,3.5-0.5,6.8-1.6,10
				c-1.1,3.2-2.6,6-4.5,8.4c-1.9,2.4-4.2,4.3-6.8,5.7c-2.6,1.4-5.5,2.1-8.7,2.1c-6,0-10.7-1.5-14.1-4.4s-5-6.9-5-12
				c0-1.9,0.3-3.6,1-5.1c0.6-1.5,1.4-3,2.4-4.4s2-2.7,3.2-3.9c1.2-1.2,2.4-2.4,3.5-3.5V264c-2.8-0.5-5-1.8-6.5-3.9
				c-1.5-2-2.3-4.8-2.3-8.2c0-1.7,0.2-3.3,0.8-4.8s1.2-2.9,2.1-4.1s1.9-2.3,3.1-3.1c1.2-0.9,2.5-1.4,3.9-1.7v-0.4
				c-2.4-1.5-4.3-3.8-5.7-6.7c-1.4-2.9-2-6.7-2-11.2c0-2.9,0.4-5.5,1.2-8c0.8-2.5,1.9-4.7,3.4-6.5c1.4-1.8,3.1-3.3,5.1-4.4
				s4.1-1.6,6.4-1.6c2.1,0,4,0.3,5.6,0.9c1.6,0.6,3.3,1.7,5.1,3.2c0.7,0.4,1.2,0.6,1.7,0.7c0.5,0.1,1,0.1,1.7,0.1s1.3-0.1,1.8-0.5
				c0.5-0.3,1-0.7,1.5-1.1c0.4-0.4,0.9-0.8,1.4-1.1c0.5-0.3,1.1-0.5,1.7-0.5c0.9,0,1.7,0.5,2.3,1.6s0.9,2.4,0.9,3.9
				C1144.9,208.1,1144.6,209.3,1144.1,210.3z M1135.9,270.2c-0.7-1.9-1.5-3.2-2.4-3.9c-1.2-1-2.7-1.7-4.6-2.1
				c-1.8-0.4-4.3-0.6-7.6-0.6c-1.2,0-2.3,0.1-3.6,0.3s-2.2,0.4-3,0.5c-2.6,1.1-4.4,2.8-5.4,5.1c-1,2.3-1.5,4.9-1.5,7.6
				c0,2.9,0.5,5.4,1.4,7.5c1,2.1,2.2,4,3.6,5.4c1.4,1.5,3,2.6,4.6,3.3c1.6,0.7,3.1,1.1,4.5,1.1c1.7,0,3.1-0.1,4.3-0.4
				c1.2-0.3,2.2-0.7,3.2-1.2c1.9-1.2,3.6-3.3,5.1-6c1.5-2.8,2.2-6.1,2.2-9.9C1136.9,274.3,1136.5,272,1135.9,270.2z M1129,212.1
				c-0.4-2.1-1-3.9-1.7-5.4s-1.7-2.8-2.8-3.8s-2.5-1.4-3.9-1.4c-1.4,0-2.6,0.5-3.7,1.5c-1.1,1-2,2.4-2.8,4.1
				c-0.8,1.7-1.3,3.7-1.7,5.9c-0.4,2.2-0.6,4.5-0.6,6.8c0,5.4,0.8,9.7,2.5,12.9c1.7,3.3,3.8,4.9,6.2,4.9c1.5,0,2.8-0.5,3.9-1.6
				s2.1-2.5,2.9-4.3c0.8-1.8,1.3-3.8,1.7-6.1c0.4-2.3,0.6-4.7,0.6-7.2C1129.6,216.3,1129.4,214.1,1129,212.1z"/>
			<path class="st2" d="M1158.7,262.1c-0.9,1.3-2.1,1.9-3.5,1.9c-1.4,0-2.6-0.7-3.6-2.1s-1.4-3.2-1.4-5.5c0-2.3,0.5-4.3,1.4-5.8
				c0.9-1.6,2.1-2.3,3.6-2.3s2.6,0.8,3.5,2.5c0.9,1.6,1.4,3.6,1.4,5.9S1159.6,260.8,1158.7,262.1z M1169.8,209.4
				c-0.1,1.9-0.2,3.8-0.4,5.7c-0.2,1.9-0.5,3.6-0.8,5.1s-0.8,2.7-1.4,3.6c-1.1,1.7-2.6,3-4.5,4s-4.5,2-7.8,3.1v10.8h-1.5v-23.4
				c1.4-0.4,2.9-0.9,4.3-1.3s2.8-1,4.1-1.7c1.1-0.5,2.1-1.2,2.9-1.9c0.8-0.8,1.5-1.7,2.1-2.7c0.6-1.1,0.9-2.4,1.2-3.9
				s0.4-3.4,0.4-5.6c0-2.9-0.3-5.2-0.9-7c-0.6-1.8-1.4-3.2-2.4-4.1s-2.1-1.6-3.4-1.9s-2.5-0.5-3.7-0.5c-0.4,0-1,0.1-1.9,0.1
				c-0.9,0.1-1.8,0.2-2.7,0.4v-20.9h1.4v6.6c2.5,0,4.6,0.4,6.2,1.1s3.2,2.2,4.6,4.4c1,1.4,1.8,3.2,2.4,5.2s1,4.2,1.4,6.5
				c0.3,2.3,0.5,4.6,0.6,6.8s0.1,4.4,0.1,6.4C1169.9,205.7,1169.9,207.4,1169.8,209.4z"/>
		</g>
		<g>
			<path class="st3" d="M350,120.2c-6.9-8.1-13.8-16.2-20.8-24.2c-1.5-1.7-0.6-3,0-4.5c2.7-7.4,4.3-15,3.9-23
				c-0.5-8.8-3.5-16.5-9.8-22.9c-9.2-9.3-19.7-10.4-30.7-3.2c-5.6,3.7-10.4,8.3-14.7,13.5c-1.9,2.4-2.9,2.1-4.8,0
				c-10.4-11.9-23.7-15.8-39.1-14.1c-12.6,1.4-21.7,7.9-27.7,18.8c-4.4,8-7.2,16.5-7.2,25.7c0,1.6,0.1,2.7-2.1,2.8
				c-15.1,1.1-22.7,13.3-24.8,25.4c-1.6,9-0.1,17.6,3.9,25.7c1.3,2.7,1.3,4-1.3,6c-6.1,4.7-8.6,11.2-7.9,18.9
				c2.3,26.1,33.6,41.8,55.7,28c5.1-3.2,8.3-8.1,11.5-13c12.7-19.8,26.1-39.1,44-54.7c9-7.9,18.6-14.9,30.4-20.9
				c-3.5,5.1-7.5,7.8-11.1,11c-19.1,16.8-36,35.6-47.6,58.5c-2.7,5.4-6.9,11.3-5.9,16.6c1,5.3,8.7,6.8,13.5,9.9
				c9.3,6.1,9.4,5.8,16.7-2.5c18.5-21.1,37.9-41.2,61.7-56.6c5.2-3.4,10.6-6.5,16.9-8.1c-7.2,6-14.5,11.9-21.6,18
				c-23.5,20.2-44.2,42.9-60.9,69.1c-1.7,2.7-2.8,2.9-5.3,1.2c-9.6-6.2-19.5-12.2-29.1-18.5c-2.5-1.6-4.2-1.7-6.6-0.1
				c-2.4,1.7-5.2,3-7.9,4.2c-24.8,10.8-46.4,4.2-61-18.5c-4.2-6.5-7.5-13.4-8.6-21.1c-1.5-10.2,1-19.2,8-26.8c1.9-2.1,2-3.6,1.2-6.1
				c-6.1-18.2-3-34.8,8.8-49.8c4-5.1,9-8.9,15.7-9.9c2.1-0.3,2.6-1.3,3.1-3.1c7.4-26.4,25.4-41.4,51.7-47
				c13.1-2.8,25.6-0.7,36.2,8.2c2.9,2.4,3.8-0.2,5.2-1.4c16.5-14.4,41.1-13.4,55.9,2.5c7.1,7.5,10,16.8,10.3,26.9
				c0.4,11.1-2.1,21.5-7.5,31.2c-1.4,2.4-1.5,4.3-0.1,6.8c3.7,6.7,7.1,13.6,10.6,20.3C350.4,119.9,350.2,120.1,350,120.2z"/>
			<path class="st3" d="M212.8,121.5c4.3-0.8,8,0.5,11.7,1.7c10,3.2,19.7,7.1,28.8,12.4c1.2,0.7,4.5,1,1.9,3.6
				c-1.6,1.7-2,5.8-6.2,3.3C237,135.4,224.9,128.5,212.8,121.5z"/>
			<path class="st3" d="M257.9,77.1c5.4,7.2,9.1,15.5,13.6,23.3c2.2,3.7,4.1,7.6,6.1,11.4c2.3,4.3,1.6,6.2-2.8,8.2
				c-1.7,0.8-2-0.2-2.6-1.2c-6.6-12.3-11.6-25.3-14.7-39C257.5,79,257.8,78,257.9,77.1z"/>
			<path class="st3" d="M202.6,159.8c11.1-1.3,22.3-1.7,33.4-0.6c1.4,0.1,4.4-0.3,3.7,1.8c-0.8,2.2-1.3,6.6-4.7,6
				c-10.8-2.2-21.8-3.5-32.2-7.2L202.6,159.8z"/>
			<path class="st3" d="M297.9,69.8c1.9,10,4.1,20,5.5,30c0.5,3.4-3.7,3.9-5.9,4.6c-2.4,0.8-1.7-2.2-1.9-3.5c-1-10.4,0-20.7,0.7-31
				C296.8,69.8,297.3,69.8,297.9,69.8z"/>
			<polygon class="st3" points="296.7,66.9 296.4,67.3 296.9,67.2 			"/>
			<path class="st3" d="M202.8,159.7l-0.1,0.2c0,0,0-0.2-0.1-0.2C202.6,159.8,202.8,159.7,202.8,159.7z"/>
		</g>
	</g>
</g>
</svg>
