<?xml version="1.0" encoding="utf-8"?>
<!-- Generator: Adobe Illustrator 26.0.2, SVG Export Plug-In . SVG Version: 6.00 Build 0)  -->
<svg version="1.1" xmlns="http://www.w3.org/2000/svg" xmlns:xlink="http://www.w3.org/1999/xlink" x="0px" y="0px"
	 viewBox="0 0 1062 314" style="enable-background:new 0 0 1062 314;" xml:space="preserve">
<style type="text/css">
	.st0{fill:#FFBC2C;}
	.st1{fill:#545454;}
	.st2{fill:#3F0EC6;}
	.st3{fill:#F90018;}
</style>
<g id="Layer_2">
	<rect class="st0" width="1062" height="314"/>
</g>
<g id="Layer_1">
	<g>
		<path class="st1" d="M178.75,101.82c-12.36,11.91-25.65,23.79-37.85,36.71c-12.54,13.27-22.26,28.61-28.49,45.99
			c-1.23,3.43-0.74,5.35,2.47,7.22c6.73,3.91,13.23,8.2,19.96,12.41c25.33-28.67,50.8-56.54,86.14-72.71
			c-32.74,25.43-62.26,53.88-85.1,89.59c-5.92-3.77-11.76-7.47-17.59-11.2c-4.91-3.14-9.9-6.17-14.67-9.52
			c-2.27-1.6-4-1.55-6.28-0.1c-2.66,1.69-5.51,3.12-8.42,4.35c-24.79,10.43-46.28,3.82-60.25-19.16
			c-3.74-6.14-6.53-13.17-8.24-20.16c-2.47-10.14,0.53-19.52,7.55-27.32c1.89-2.1,2.46-3.67,1.54-6.51
			c-5.88-18.02-2.71-34.52,9.06-49.33C42.63,77,47.7,73.43,54.2,71.93c1.33-0.31,2.98-1.91,3.38-3.24
			c7.54-25.3,24.88-39.94,50.03-45.83c15.29-3.58,26.95-0.61,40.23,9.61c1.37-1.16,2.84-2.42,4.32-3.66
			c22.49-18.84,57.88-6.59,63.69,22.16c2.82,13.96,0.1,27.2-6.67,39.58c-1.46,2.68-1.54,4.72-0.15,7.33
			c3.34,6.27,6.43,12.68,8.91,19.51c-6.56-7.82-13.19-15.59-19.56-23.56c-0.72-0.9-0.1-3,0.14-4.51c1.25-8,3.5-15.99,3.54-24
			c0.03-5.34-2.17-11.19-4.87-15.96c-8.48-15.01-22.85-18.07-36.72-7.84c-5.54,4.08-10.08,9.51-15.3,14.53
			c-14.81-17.45-33.1-22.28-53.03-13.9c-18.1,7.61-22.48,24.97-24.53,43.42c-12.85,0.72-21.23,8.01-25.32,20.43
			c-3.93,11.95-1.75,23.33,3.68,34.22c-15.42,14.92-13.25,35.75,4.8,48.29c15.2,10.56,38.71,9.41,50.23-8.52
			c9.07-14.11,19.22-27.61,29.84-40.61c12.67-15.51,28.55-27.41,46.22-36.86C177.89,102.08,178.83,101.79,178.75,101.82z"/>
		<path class="st1" d="M127.68,74.76c6.96,12.81,13.93,25.62,21.11,38.83c-2.17,1.63-4.1,3.08-6.4,4.81
			c-7.67-13.82-12.81-28.04-16.03-42.99C126.79,75.19,127.23,74.97,127.68,74.76z"/>
		<path class="st1" d="M82.54,117.6c14.97,3.49,28.99,9.38,42.66,17.31c-1.67,2.17-3.06,3.98-4.9,6.37
			c-12.82-7.51-25.59-14.99-38.35-22.47C82.15,118.4,82.35,118,82.54,117.6z"/>
		<path class="st1" d="M73.21,156.04c11.68,0.12,23.35,0.24,36.25,0.37c-2.11,3.74-3.31,5.86-4.64,8.22
			c-10.73-2.33-21.29-4.63-31.84-6.92C73.06,157.15,73.14,156.59,73.21,156.04z"/>
		<path class="st1" d="M164.28,102.07c0.29-11.66,0.58-23.32,0.87-34.98c0.56-0.04,1.12-0.08,1.67-0.12
			c1.85,10.17,3.99,20.31,5.25,30.55c0.2,1.61-3.58,3.71-5.51,5.59C165.81,102.76,165.04,102.42,164.28,102.07z"/>
	</g>
	<g>
		<path class="st2" d="M284.17,170.89c-0.97,0.98-1.53,1.65-1.7,2.01c-0.17,0.27-0.41,0.71-0.75,1.34
			c-0.33,0.62-0.72,1.49-1.16,2.61c-0.44,1.12-0.91,2.54-1.41,4.28s-1.02,3.9-1.58,6.49c-0.89,4.37-1.91,9.21-3.07,14.52
			c-1.16,5.31-2.34,10.77-3.53,16.39c-1.19,5.62-2.39,11.26-3.61,16.92c-1.22,5.67-2.35,11.04-3.4,16.12l-3.48,12.84h-0.83
			c-1.49-6.42-2.89-12.58-4.19-18.46c-1.3-5.89-2.54-11.55-3.73-16.99c-1.19-5.44-2.34-10.72-3.44-15.85
			c-1.11-5.13-2.24-10.19-3.4-15.19c-0.89,4.1-1.82,8.41-2.82,12.91c-1,4.5-1.99,9.08-2.99,13.71c-1,4.64-1.99,9.21-2.99,13.71
			c-1,4.5-1.96,8.85-2.9,13.04l-3.65,13.11h-1c-1.71-7.22-3.33-14.09-4.85-20.6c-1.52-6.51-2.99-12.78-4.4-18.8
			c-1.41-6.02-2.78-11.86-4.11-17.53c-1.33-5.66-2.65-11.31-3.98-16.92c-0.39-1.69-0.73-3.17-1.04-4.42
			c-0.3-1.25-0.58-2.41-0.83-3.48c-0.25-1.07-0.51-2.09-0.79-3.08c-0.28-0.98-0.58-2.01-0.91-3.08c-0.17-0.54-0.4-1.2-0.71-2.01
			c-0.3-0.8-0.73-1.58-1.29-2.34c-0.55-0.76-1.22-1.43-1.99-2.01c-0.77-0.58-1.77-0.91-2.99-1v-1.47h23.39v1.34
			c-0.28,0-0.75,0.09-1.41,0.27c-0.66,0.18-1.36,0.49-2.07,0.94c-0.72,0.45-1.34,1.12-1.87,2.01c-0.53,0.89-0.79,2.1-0.79,3.61
			c0,0.8,0.29,2.65,0.87,5.55c0.58,2.9,1.34,6.42,2.28,10.57c0.94,4.15,1.98,8.68,3.11,13.58c1.13,4.91,2.27,9.75,3.4,14.52
			c1.13,4.77,2.2,9.23,3.19,13.38c1,4.15,1.8,7.56,2.41,10.23c0.17-0.71,0.58-2.56,1.24-5.55c0.66-2.99,1.49-6.73,2.49-11.24
			c1-4.5,2.1-9.59,3.32-15.25c1.22-5.66,2.43-11.57,3.65-17.73c-0.83-3.57-1.58-6.71-2.24-9.43c-0.66-2.72-1.38-5.37-2.16-7.96
			c-0.22-0.71-0.51-1.47-0.87-2.27c-0.36-0.8-0.86-1.58-1.49-2.34c-0.64-0.76-1.42-1.38-2.36-1.87c-0.94-0.49-2.07-0.78-3.4-0.87
			v-1.47h25.96v1.34c-0.33,0.09-0.93,0.22-1.78,0.4c-0.86,0.18-1.71,0.51-2.57,1c-0.86,0.49-1.63,1.18-2.32,2.07
			c-0.69,0.89-1.04,2.01-1.04,3.34c0,0.54,0.3,2.34,0.91,5.42c0.61,3.08,1.38,6.82,2.32,11.24c0.94,4.42,1.99,9.21,3.15,14.38
			c1.16,5.17,2.27,10.15,3.32,14.92c1.05,4.77,2,9.05,2.86,12.84c0.86,3.79,1.48,6.53,1.87,8.23c0.17-0.62,0.46-1.94,0.87-3.95
			c0.41-2.01,0.94-4.46,1.58-7.36c0.64-2.9,1.33-6.13,2.07-9.7c0.75-3.57,1.49-7.2,2.24-10.9c0.75-3.7,1.49-7.4,2.24-11.1
			c0.75-3.7,1.42-7.16,2.03-10.37c0.77-4.1,1.22-7.09,1.33-8.96c0.11-1.87,0.17-3.25,0.17-4.15c0-1.34-0.25-2.43-0.75-3.28
			c-0.5-0.85-1.11-1.56-1.83-2.14c-0.72-0.58-1.49-1.02-2.32-1.34c-0.83-0.31-1.58-0.51-2.24-0.6v-1.34h18.25v1.34
			C286.31,169.28,285.14,169.91,284.17,170.89z"/>
		<path class="st2" d="M310.76,264.01v-1.47c1.49-0.18,2.74-0.47,3.73-0.87c1-0.4,1.49-1.31,1.49-2.74v-33.45
			c0-2.59-0.11-4.99-0.33-7.22c-0.22-2.23-0.62-4.15-1.2-5.75c-0.58-1.61-1.37-2.85-2.36-3.75c-1-0.89-2.27-1.34-3.82-1.34
			c-1.99,0-3.68,0.58-5.06,1.74c-1.38,1.16-2.49,2.72-3.32,4.68c-0.11,0.27-0.26,0.83-0.46,1.67c-0.19,0.85-0.29,1.63-0.29,2.34
			v41.07c0,0.8,0.14,1.43,0.41,1.87c0.28,0.45,0.64,0.78,1.08,1c0.44,0.22,0.94,0.38,1.49,0.47c0.55,0.09,1.11,0.22,1.66,0.4v1.34
			h-16.51v-1.34c1.27-0.18,2.42-0.51,3.44-1c1.02-0.49,1.53-1.58,1.53-3.28V182.4c0-0.71-0.04-1.25-0.12-1.61
			c-0.08-0.36-0.32-0.76-0.71-1.2c-0.44-0.62-1.04-1.23-1.78-1.81c-0.75-0.58-1.48-1.23-2.2-1.94v-0.8l11.12-8.16h0.66l-0.25,46.42
			l0.17,0.13c0.38-1.25,0.98-2.68,1.78-4.28c0.8-1.61,1.8-3.12,3.02-4.55c1.21-1.43,2.6-2.65,4.17-3.68
			c1.57-1.02,3.29-1.54,5.17-1.54c1.82,0,3.35,0.51,4.59,1.54c1.24,1.03,2.23,2.45,2.98,4.28c0.74,1.83,1.27,3.99,1.57,6.49
			c0.3,2.5,0.46,5.22,0.46,8.16v39.47c0,0.62,0.17,1.16,0.5,1.61c0.33,0.45,0.75,0.78,1.24,1c0.5,0.22,1.02,0.4,1.58,0.54
			c0.55,0.13,1.08,0.25,1.58,0.33v1.2H310.76z"/>
		<path class="st2" d="M366.5,255.85c-0.44,1.61-1.02,3.06-1.74,4.35c-0.72,1.29-1.56,2.27-2.53,2.94c-0.97,0.67-2.03,1-3.19,1
			c-1.88,0-3.55-0.89-5.02-2.68c-1.47-1.78-2.2-4.9-2.2-9.37l-0.17-0.13c-0.44,1.16-1.04,2.45-1.78,3.88
			c-0.75,1.43-1.63,2.77-2.65,4.01c-1.02,1.25-2.16,2.25-3.4,3.01c-1.24,0.76-2.61,1.14-4.11,1.14c-0.89,0-1.78-0.2-2.7-0.6
			c-0.91-0.4-1.74-1.11-2.49-2.14c-0.75-1.02-1.36-2.34-1.82-3.95c-0.47-1.61-0.71-3.57-0.71-5.89c0-2.5,0.62-4.9,1.87-7.22
			c1.24-2.32,2.78-4.42,4.6-6.29s3.44-3.48,4.85-4.82s2.64-2.48,3.69-3.41c1.05-0.94,1.98-1.74,2.78-2.41
			c0.8-0.67,1.48-1.27,2.03-1.81V211.7c0-0.18-0.1-0.6-0.29-1.27c-0.19-0.67-0.53-1.36-1-2.07c-0.47-0.71-1.12-1.36-1.95-1.94
			c-0.83-0.58-1.91-0.87-3.23-0.87c-0.89,0-1.76,0.25-2.61,0.74c-0.86,0.49-1.62,1.12-2.28,1.87c-0.66,0.76-1.19,1.52-1.58,2.27
			c-0.39,0.76-0.58,1.4-0.58,1.94v6.02c0,1.25-0.4,2.36-1.2,3.34c-0.8,0.98-1.67,1.47-2.61,1.47c-0.89,0-1.65-0.51-2.28-1.54
			c-0.64-1.02-0.95-2.21-0.95-3.54c0-1.07,0.17-2.05,0.5-2.94c0.33-0.89,0.75-1.69,1.24-2.41c0.5-0.71,1.04-1.34,1.62-1.87
			c0.58-0.54,1.09-1.02,1.54-1.47c1.44-1.34,2.9-2.63,4.4-3.88c1.49-1.25,2.92-2.32,4.27-3.21c1.35-0.89,2.6-1.61,3.73-2.14
			c1.13-0.54,2.06-0.8,2.78-0.8c1.44,0,2.79,0.6,4.07,1.81c1.27,1.2,2.18,2.7,2.74,4.48c0.22,0.62,0.36,1.72,0.41,3.28
			c0.05,1.56,0.08,3.1,0.08,4.62c0,3.21-0.01,6.11-0.04,8.7c-0.03,2.59-0.04,5.08-0.04,7.49s-0.01,4.88-0.04,7.43
			c-0.03,2.54-0.04,5.33-0.04,8.36c0,4.01,0.43,6.67,1.29,7.96c0.86,1.29,1.84,1.94,2.94,1.94c1.27,0,2.21-0.42,2.82-1.27
			c0.61-0.85,1.02-1.94,1.24-3.28h0.5C367.19,252.59,366.94,254.24,366.5,255.85z M351.81,227.62c-1,1.16-2.24,2.39-3.73,3.68
			c-1.49,1.29-2.95,2.7-4.35,4.21c-1.41,1.52-2.63,3.19-3.65,5.02c-1.02,1.83-1.53,3.9-1.53,6.22c0,2.32,0.5,4.42,1.49,6.29
			c1,1.87,2.29,2.81,3.9,2.81c1.44,0,2.71-0.27,3.82-0.8c1.11-0.54,2.13-1.56,3.07-3.08c0.66-0.98,1-2.23,1-3.75V227.62z"/>
		<path class="st2" d="M392.29,208.89h-12.61v35.19c0,4.55,0.61,7.85,1.83,9.9c1.21,2.05,2.79,3.08,4.73,3.08
			c1.6,0,2.93-0.42,3.98-1.27c1.05-0.85,1.96-2.16,2.74-3.95l0.5,0.4c-0.33,1.34-0.79,2.74-1.37,4.21
			c-0.58,1.47-1.36,2.81-2.32,4.01c-0.97,1.2-2.1,2.14-3.4,2.81c-1.3,0.67-2.83,1-4.6,1c-1.16,0-2.28-0.29-3.34-0.87
			c-1.07-0.58-2.01-1.43-2.83-2.54c-0.82-1.11-1.49-2.36-2.01-3.75c-0.52-1.38-0.78-2.79-0.78-4.21c0-8.38,0.03-16.34,0.08-23.88
			c0.05-7.54,0.08-14.25,0.08-20.13h-6.06v-1.47l11.95-18.33h0.66v11.64h15.35L392.29,208.89z"/>
		<path class="st2" d="M403.86,184.14c-0.58,1.79-1.34,3.3-2.28,4.55c-0.94,1.25-2.05,2.23-3.32,2.94c-1.27,0.71-2.57,1.07-3.9,1.07
			v-1.34c1.93-0.62,3.44-1.63,4.52-3.01c1.08-1.38,1.62-3.5,1.62-6.35c0-0.8-0.06-1.54-0.17-2.21c-0.11-0.67-0.22-1.23-0.33-1.67
			c-0.5,0.62-1.05,1.05-1.66,1.27c-0.61,0.22-1.13,0.33-1.58,0.33c-1.11,0-1.95-0.6-2.53-1.81c-0.58-1.2-0.87-2.48-0.87-3.81
			c0-2.23,0.51-3.92,1.53-5.08c1.02-1.16,2.17-1.74,3.44-1.74c1.88,0,3.41,1.07,4.6,3.21c1.19,2.14,1.78,4.68,1.78,7.63
			C404.73,180.35,404.44,182.35,403.86,184.14z"/>
		<path class="st2" d="M432.48,253.5c-0.86,2.54-2,4.62-3.44,6.22c-1.44,1.61-3.08,2.77-4.94,3.48c-1.85,0.71-3.8,1.07-5.85,1.07
			c-2.43,0-4.73-0.36-6.88-1.07c-2.16-0.71-4.15-1.74-5.97-3.08v-17.66h0.66c0.44,2.14,0.99,4.39,1.65,6.76
			c0.66,2.36,1.46,4.55,2.4,6.56c0.94,2.01,2.07,3.66,3.39,4.95c1.32,1.29,2.89,1.94,4.71,1.94c2.64,0,4.75-1.23,6.32-3.68
			c1.57-2.45,2.36-6.22,2.36-11.3c0-2.76-0.54-5.06-1.61-6.89c-1.07-1.83-2.55-3.05-4.42-3.68c-1.49-0.45-2.92-0.94-4.3-1.47
			c-1.38-0.54-2.62-1.11-3.72-1.74c-2.09-1.16-3.79-3.16-5.08-6.02c-1.29-2.85-1.94-6.29-1.94-10.3c0-2.76,0.36-5.26,1.08-7.49
			c0.72-2.23,1.69-4.15,2.9-5.75c1.22-1.61,2.63-2.83,4.23-3.68c1.6-0.85,3.32-1.27,5.14-1.27c2.32,0,4.37,0.33,6.14,1
			c1.77,0.67,3.46,1.49,5.06,2.48l1,16.59l-0.66,0.27c-0.78-2.68-1.55-5.15-2.32-7.42c-0.78-2.27-1.63-4.24-2.57-5.89
			c-0.94-1.65-2-2.92-3.19-3.81c-1.19-0.89-2.56-1.34-4.11-1.34c-0.94,0-1.87,0.27-2.78,0.8c-0.91,0.54-1.71,1.32-2.41,2.34
			c-0.69,1.03-1.26,2.32-1.7,3.88c-0.44,1.56-0.66,3.37-0.66,5.42c0,3.3,0.58,5.67,1.74,7.09c1.16,1.43,2.63,2.5,4.4,3.21
			c1.22,0.45,2.54,0.92,3.98,1.4c1.44,0.49,2.68,0.96,3.73,1.4c2.49,0.98,4.6,3.03,6.35,6.15c1.74,3.12,2.61,6.96,2.61,11.51
			C433.77,247.95,433.34,250.96,432.48,253.5z"/>
		<path class="st2" d="M511.57,198.72c-0.72-4.28-1.8-8.29-3.24-12.04c-1.44-3.75-3.14-7-5.1-9.77c-1.96-2.76-4.18-4.95-6.64-6.56
			c-2.46-1.61-5.07-2.41-7.84-2.41c-3.82,0-7.22,1.38-10.2,4.15c-2.99,2.77-5.49,6.42-7.51,10.97c-2.02,4.55-3.57,9.7-4.65,15.45
			s-1.62,11.66-1.62,17.73c0,6.42,0.57,12.44,1.7,18.06c1.13,5.62,2.75,10.5,4.85,14.65c2.1,4.15,4.65,7.43,7.63,9.83
			c2.99,2.41,6.3,3.61,9.95,3.61c2.88,0,5.57-0.85,8.09-2.54c2.52-1.69,4.75-3.92,6.72-6.69c1.96-2.76,3.62-5.95,4.98-9.57
			c1.35-3.61,2.28-7.34,2.78-11.17h1l-0.25,29.43h-1c-0.66-1.52-1.36-2.9-2.07-4.15c-0.72-1.25-1.22-1.87-1.49-1.87
			c-0.11,0-0.61,0.47-1.49,1.4c-0.89,0.94-2.16,1.96-3.82,3.08c-1.66,1.12-3.68,2.1-6.05,2.94c-2.38,0.85-5.12,1.27-8.21,1.27
			c-5.14,0-9.79-1.18-13.94-3.55c-4.15-2.36-7.67-5.71-10.58-10.03c-2.9-4.33-5.13-9.5-6.68-15.52c-1.55-6.02-2.32-12.64-2.32-19.87
			c0-1.61,0.07-3.43,0.21-5.49c0.14-2.05,0.39-4.24,0.75-6.56c0.36-2.32,0.86-4.75,1.49-7.29c0.63-2.54,1.45-5.1,2.45-7.69
			c1.16-3.03,2.6-5.93,4.31-8.7c1.71-2.76,3.73-5.19,6.05-7.29c2.32-2.09,4.95-3.77,7.88-5.02c2.93-1.25,6.22-1.87,9.87-1.87
			c3.32,0,6.22,0.49,8.71,1.47c2.49,0.98,4.56,2.05,6.22,3.21c1.66,1.16,2.93,2.23,3.82,3.21c0.88,0.98,1.38,1.47,1.49,1.47
			c0.11,0,0.32-0.2,0.62-0.6c0.3-0.4,0.63-0.89,1-1.47c0.36-0.58,0.73-1.25,1.12-2.01c0.39-0.76,0.75-1.54,1.08-2.34h0.91v29.97
			L511.57,198.72z"/>
		<path class="st2" d="M542.18,264.01v-1.47c1.49-0.18,2.74-0.47,3.73-0.87c1-0.4,1.49-1.31,1.49-2.74v-33.45
			c0-2.59-0.11-4.99-0.33-7.22c-0.22-2.23-0.62-4.15-1.2-5.75c-0.58-1.61-1.37-2.85-2.36-3.75c-1-0.89-2.27-1.34-3.82-1.34
			c-1.99,0-3.68,0.58-5.06,1.74c-1.38,1.16-2.49,2.72-3.32,4.68c-0.11,0.27-0.26,0.83-0.46,1.67c-0.19,0.85-0.29,1.63-0.29,2.34
			v41.07c0,0.8,0.14,1.43,0.42,1.87c0.28,0.45,0.63,0.78,1.08,1c0.44,0.22,0.94,0.38,1.49,0.47c0.55,0.09,1.11,0.22,1.66,0.4v1.34
			H518.7v-1.34c1.27-0.18,2.42-0.51,3.44-1c1.02-0.49,1.54-1.58,1.54-3.28V182.4c0-0.71-0.04-1.25-0.12-1.61
			c-0.08-0.36-0.32-0.76-0.71-1.2c-0.44-0.62-1.04-1.23-1.78-1.81c-0.75-0.58-1.48-1.23-2.2-1.94v-0.8l11.12-8.16h0.66l-0.25,46.42
			l0.17,0.13c0.38-1.25,0.98-2.68,1.78-4.28s1.8-3.12,3.02-4.55c1.21-1.43,2.6-2.65,4.17-3.68c1.57-1.02,3.29-1.54,5.17-1.54
			c1.82,0,3.35,0.51,4.59,1.54c1.24,1.03,2.23,2.45,2.98,4.28c0.74,1.83,1.27,3.99,1.57,6.49c0.3,2.5,0.46,5.22,0.46,8.16v39.47
			c0,0.62,0.17,1.16,0.5,1.61c0.33,0.45,0.75,0.78,1.24,1c0.5,0.22,1.02,0.4,1.58,0.54c0.55,0.13,1.08,0.25,1.58,0.33v1.2H542.18z"
			/>
		<path class="st2" d="M597.92,255.85c-0.44,1.61-1.02,3.06-1.74,4.35c-0.72,1.29-1.56,2.27-2.53,2.94c-0.97,0.67-2.03,1-3.19,1
			c-1.88,0-3.55-0.89-5.02-2.68c-1.47-1.78-2.2-4.9-2.2-9.37l-0.17-0.13c-0.44,1.16-1.04,2.45-1.78,3.88
			c-0.75,1.43-1.63,2.77-2.65,4.01c-1.02,1.25-2.16,2.25-3.4,3.01c-1.24,0.76-2.61,1.14-4.11,1.14c-0.89,0-1.78-0.2-2.7-0.6
			c-0.91-0.4-1.74-1.11-2.49-2.14c-0.75-1.02-1.36-2.34-1.82-3.95c-0.47-1.61-0.71-3.57-0.71-5.89c0-2.5,0.62-4.9,1.87-7.22
			c1.24-2.32,2.78-4.42,4.6-6.29s3.44-3.48,4.85-4.82s2.64-2.48,3.69-3.41c1.05-0.94,1.98-1.74,2.78-2.41
			c0.8-0.67,1.48-1.27,2.03-1.81V211.7c0-0.18-0.1-0.6-0.29-1.27c-0.19-0.67-0.53-1.36-1-2.07c-0.47-0.71-1.12-1.36-1.95-1.94
			c-0.83-0.58-1.91-0.87-3.23-0.87c-0.89,0-1.76,0.25-2.61,0.74c-0.86,0.49-1.62,1.12-2.28,1.87c-0.66,0.76-1.19,1.52-1.58,2.27
			c-0.39,0.76-0.58,1.4-0.58,1.94v6.02c0,1.25-0.4,2.36-1.2,3.34c-0.8,0.98-1.67,1.47-2.61,1.47c-0.89,0-1.65-0.51-2.28-1.54
			c-0.64-1.02-0.95-2.21-0.95-3.54c0-1.07,0.17-2.05,0.5-2.94c0.33-0.89,0.75-1.69,1.24-2.41c0.5-0.71,1.04-1.34,1.62-1.87
			c0.58-0.54,1.09-1.02,1.54-1.47c1.44-1.34,2.9-2.63,4.4-3.88c1.49-1.25,2.92-2.32,4.27-3.21c1.35-0.89,2.6-1.61,3.73-2.14
			c1.13-0.54,2.06-0.8,2.78-0.8c1.44,0,2.79,0.6,4.07,1.81c1.27,1.2,2.18,2.7,2.74,4.48c0.22,0.62,0.36,1.72,0.41,3.28
			c0.05,1.56,0.08,3.1,0.08,4.62c0,3.21-0.01,6.11-0.04,8.7c-0.03,2.59-0.04,5.08-0.04,7.49s-0.01,4.88-0.04,7.43
			c-0.03,2.54-0.04,5.33-0.04,8.36c0,4.01,0.43,6.67,1.29,7.96c0.86,1.29,1.84,1.94,2.94,1.94c1.27,0,2.21-0.42,2.82-1.27
			c0.61-0.85,1.02-1.94,1.24-3.28h0.5C598.61,252.59,598.36,254.24,597.92,255.85z M583.24,227.62c-1,1.16-2.24,2.39-3.73,3.68
			c-1.49,1.29-2.95,2.7-4.35,4.21c-1.41,1.52-2.63,3.19-3.65,5.02c-1.02,1.83-1.53,3.9-1.53,6.22c0,2.32,0.5,4.42,1.49,6.29
			c1,1.87,2.29,2.81,3.9,2.81c1.44,0,2.71-0.27,3.82-0.8c1.11-0.54,2.13-1.56,3.07-3.08c0.66-0.98,1-2.23,1-3.75V227.62z"/>
		<path class="st2" d="M626.62,211.36c-0.72,1.29-1.55,1.94-2.49,1.94c-0.88,0-1.59-0.24-2.12-0.74c-0.53-0.49-0.98-1.05-1.37-1.67
			c-0.39-0.62-0.8-1.18-1.24-1.67c-0.44-0.49-1.05-0.74-1.83-0.74c-0.66,0-1.31,0.38-1.95,1.14c-0.64,0.76-1.23,1.72-1.78,2.88
			c-0.55,1.16-1.05,2.48-1.49,3.95c-0.44,1.47-0.83,2.88-1.16,4.21v38.53c0.17,0.8,0.52,1.43,1.08,1.87
			c0.55,0.45,1.17,0.76,1.87,0.94c0.69,0.18,1.41,0.29,2.16,0.33c0.75,0.05,1.4,0.16,1.95,0.33v1.34h-18.58v-1.34
			c1.27-0.18,2.36-0.58,3.28-1.2c0.91-0.62,1.37-1.65,1.37-3.08v-45.22c0-0.71-0.04-1.25-0.12-1.61c-0.08-0.36-0.32-0.76-0.71-1.2
			c-0.5-0.45-1.08-1-1.74-1.67c-0.66-0.67-1.33-1.23-1.99-1.67v-0.8l10.87-6.82h0.5l-0.17,18.6h0.17c0.28-1.07,0.72-2.63,1.33-4.68
			c0.61-2.05,1.38-4.12,2.32-6.22c0.94-2.09,2.07-3.9,3.4-5.42c1.33-1.52,2.85-2.27,4.56-2.27c1.38,0,2.56,0.67,3.53,2.01
			c0.97,1.34,1.45,3.03,1.45,5.08C627.7,208.44,627.34,210.07,626.62,211.36z"/>
		<path class="st2" d="M627.45,264.01v-1.47c2.54-0.27,4.23-0.69,5.06-1.27c0.83-0.58,1.24-1.58,1.24-3.01v-76.93
			c0-0.71-0.04-1.25-0.12-1.61c-0.08-0.36-0.32-0.76-0.71-1.2c-0.5-0.45-1.25-1.14-2.24-2.07s-1.82-1.63-2.49-2.07v-0.8l11.86-6.29
			h0.58v91.65c0,0.89,0.12,1.56,0.37,2.01c0.25,0.45,0.62,0.76,1.12,0.94c0.5,0.18,1.13,0.29,1.91,0.33
			c0.77,0.05,1.69,0.16,2.74,0.33v1.47H627.45z"/>
		<path class="st2" d="M648.76,264.01v-1.34c0.66-0.09,1.33-0.2,1.99-0.33c0.66-0.13,1.26-0.36,1.78-0.67
			c0.52-0.31,0.97-0.74,1.33-1.27c0.36-0.54,0.54-1.2,0.54-2.01V212.5c0-0.71-0.04-1.34-0.12-1.87s-0.32-1.02-0.71-1.47
			c-0.5-0.54-1.09-1.07-1.78-1.61c-0.69-0.54-1.42-1.02-2.2-1.47v-0.8l11.2-5.89h0.5v59.8c0.11,0.89,0.34,1.54,0.71,1.94
			c0.36,0.4,0.79,0.69,1.29,0.87c0.5,0.18,1.04,0.29,1.62,0.33c0.58,0.05,1.15,0.16,1.7,0.33v1.34H648.76z M660.67,183.4
			c-0.86,1.38-1.92,2.07-3.19,2.07c-1.22,0-2.27-0.71-3.15-2.14c-0.89-1.43-1.33-3.12-1.33-5.08c0-2.05,0.43-3.75,1.29-5.08
			s1.92-2.01,3.19-2.01c1.27,0,2.33,0.67,3.19,2.01c0.86,1.34,1.29,3.03,1.29,5.08C661.95,180.3,661.52,182.02,660.67,183.4z"/>
		<path class="st2" d="M702.76,250.29c-0.78,2.45-1.83,4.71-3.15,6.76c-1.33,2.05-2.92,3.75-4.77,5.08
			c-1.85,1.34-3.91,2.01-6.18,2.01c-2.82,0-5.39-0.85-7.71-2.54c-2.32-1.69-4.3-4.08-5.93-7.16c-1.63-3.08-2.89-6.69-3.77-10.84
			c-0.89-4.15-1.33-8.54-1.33-13.18c0-3.75,0.42-7.47,1.24-11.17c0.83-3.7,2-7.02,3.53-9.97c1.52-2.94,3.37-5.33,5.56-7.16
			c2.18-1.83,4.6-2.74,7.26-2.74c2.16,0,4.19,0.45,6.1,1.34c1.91,0.89,3.57,2.25,4.98,4.08c1.41,1.83,2.56,4.13,3.44,6.89
			c0.88,2.77,1.41,6.02,1.58,9.77h-26.63c0,0.72-0.03,1.54-0.08,2.48c-0.06,0.94-0.08,1.9-0.08,2.88c0,3.75,0.33,7.34,1,10.77
			c0.66,3.43,1.63,6.47,2.9,9.1c1.27,2.63,2.88,4.71,4.81,6.22c1.94,1.52,4.17,2.27,6.72,2.27c2.76,0,5.18-1.14,7.26-3.41
			c2.07-2.27,3.44-5.06,4.11-8.36l0.66,0.27C704.04,245.63,703.54,247.84,702.76,250.29z M693.27,205.21
			c-1.41-2.36-3.3-3.55-5.68-3.55c-1.55,0-2.94,0.74-4.19,2.21c-1.25,1.47-2.32,3.19-3.24,5.15c-0.91,1.96-1.62,3.95-2.12,5.95
			s-0.8,3.55-0.91,4.62c1.27,0,2.41,0,3.4,0s1.98-0.02,2.94-0.07c0.97-0.04,1.98-0.09,3.03-0.13c1.05-0.04,2.21-0.07,3.48-0.07
			c0.83,0,1.6-0.04,2.32-0.13c0.72-0.09,1.35-0.31,1.91-0.67c0.39-0.71,0.68-1.38,0.87-2.01c0.19-0.62,0.29-1.56,0.29-2.81
			C695.38,210.4,694.68,207.57,693.27,205.21z"/>
		<path class="st2" d="M781.15,198.72c-0.72-4.28-1.8-8.29-3.24-12.04c-1.44-3.75-3.14-7-5.1-9.77c-1.96-2.76-4.18-4.95-6.64-6.56
			c-2.46-1.61-5.07-2.41-7.84-2.41c-3.82,0-7.22,1.38-10.2,4.15c-2.99,2.77-5.49,6.42-7.51,10.97c-2.02,4.55-3.57,9.7-4.65,15.45
			s-1.62,11.66-1.62,17.73c0,6.42,0.57,12.44,1.7,18.06c1.13,5.62,2.75,10.5,4.85,14.65c2.1,4.15,4.65,7.43,7.63,9.83
			c2.99,2.41,6.3,3.61,9.95,3.61c2.88,0,5.57-0.85,8.09-2.54c2.52-1.69,4.75-3.92,6.72-6.69c1.96-2.76,3.62-5.95,4.98-9.57
			c1.35-3.61,2.28-7.34,2.78-11.17h1l-0.25,29.43h-1c-0.66-1.52-1.36-2.9-2.07-4.15c-0.72-1.25-1.22-1.87-1.49-1.87
			c-0.11,0-0.61,0.47-1.49,1.4c-0.89,0.94-2.16,1.96-3.82,3.08c-1.66,1.12-3.68,2.1-6.05,2.94c-2.38,0.85-5.12,1.27-8.21,1.27
			c-5.14,0-9.79-1.18-13.94-3.55c-4.15-2.36-7.67-5.71-10.58-10.03c-2.9-4.33-5.13-9.5-6.68-15.52c-1.55-6.02-2.32-12.64-2.32-19.87
			c0-1.61,0.07-3.43,0.21-5.49c0.14-2.05,0.39-4.24,0.75-6.56c0.36-2.32,0.86-4.75,1.49-7.29c0.63-2.54,1.45-5.1,2.45-7.69
			c1.16-3.03,2.6-5.93,4.31-8.7c1.71-2.76,3.73-5.19,6.05-7.29c2.32-2.09,4.95-3.77,7.88-5.02c2.93-1.25,6.22-1.87,9.87-1.87
			c3.32,0,6.22,0.49,8.71,1.47c2.49,0.98,4.56,2.05,6.22,3.21c1.66,1.16,2.93,2.23,3.82,3.21c0.88,0.98,1.38,1.47,1.49,1.47
			c0.11,0,0.32-0.2,0.62-0.6c0.3-0.4,0.63-0.89,1-1.47c0.36-0.58,0.73-1.25,1.12-2.01c0.39-0.76,0.75-1.54,1.08-2.34h0.91v29.97
			L781.15,198.72z"/>
		<path class="st2" d="M825.44,244.14c-1.05,4.06-2.46,7.6-4.23,10.64c-1.77,3.03-3.83,5.4-6.18,7.09c-2.35,1.7-4.83,2.54-7.42,2.54
			c-2.16,0-4.4-0.62-6.72-1.87c-2.32-1.25-4.47-3.23-6.43-5.95c-1.96-2.72-3.57-6.2-4.81-10.44c-1.24-4.24-1.87-9.21-1.87-14.92
			c0-4.1,0.48-8.07,1.45-11.91c0.97-3.83,2.32-7.22,4.06-10.17c1.74-2.94,3.84-5.31,6.3-7.09c2.46-1.78,5.18-2.68,8.17-2.68
			c2.21,0,4.45,0.67,6.72,2.01s4.33,3.32,6.18,5.95c1.85,2.63,3.37,5.93,4.56,9.9c1.19,3.97,1.78,8.63,1.78,13.98
			C827.02,235.78,826.49,240.08,825.44,244.14z M818.68,221.33c-0.42-3.48-1.09-6.69-2.03-9.63c-0.94-2.94-2.19-5.37-3.73-7.29
			c-1.55-1.92-3.46-2.88-5.72-2.88c-1.83,0-3.46,0.89-4.89,2.68c-1.44,1.79-2.67,4.13-3.69,7.02c-1.02,2.9-1.8,6.15-2.32,9.77
			c-0.53,3.61-0.79,7.29-0.79,11.04c0,4.1,0.22,7.98,0.66,11.64c0.44,3.66,1.16,6.89,2.16,9.7c1,2.81,2.27,5.04,3.82,6.69
			c1.55,1.65,3.4,2.48,5.56,2.48c2.16,0,3.97-1.05,5.43-3.14c1.46-2.09,2.65-4.73,3.57-7.89c0.91-3.17,1.58-6.58,1.99-10.23
			c0.42-3.66,0.62-7.04,0.62-10.17C819.3,228.06,819.1,224.81,818.68,221.33z"/>
		<path class="st2" d="M867.83,244.14c-1.05,4.06-2.46,7.6-4.23,10.64c-1.77,3.03-3.83,5.4-6.18,7.09c-2.35,1.7-4.83,2.54-7.42,2.54
			c-2.16,0-4.4-0.62-6.72-1.87c-2.32-1.25-4.47-3.23-6.43-5.95c-1.96-2.72-3.57-6.2-4.81-10.44c-1.24-4.24-1.87-9.21-1.87-14.92
			c0-4.1,0.48-8.07,1.45-11.91c0.97-3.83,2.32-7.22,4.06-10.17c1.74-2.94,3.84-5.31,6.3-7.09c2.46-1.78,5.18-2.68,8.17-2.68
			c2.21,0,4.45,0.67,6.72,2.01s4.33,3.32,6.18,5.95c1.85,2.63,3.37,5.93,4.56,9.9c1.19,3.97,1.78,8.63,1.78,13.98
			C869.4,235.78,868.88,240.08,867.83,244.14z M861.07,221.33c-0.42-3.48-1.09-6.69-2.03-9.63c-0.94-2.94-2.19-5.37-3.73-7.29
			c-1.55-1.92-3.46-2.88-5.72-2.88c-1.83,0-3.46,0.89-4.89,2.68c-1.44,1.79-2.67,4.13-3.69,7.02c-1.02,2.9-1.8,6.15-2.32,9.77
			c-0.53,3.61-0.79,7.29-0.79,11.04c0,4.1,0.22,7.98,0.66,11.64c0.44,3.66,1.16,6.89,2.16,9.7c1,2.81,2.27,5.04,3.82,6.69
			c1.55,1.65,3.4,2.48,5.56,2.48c2.16,0,3.97-1.05,5.43-3.14c1.46-2.09,2.65-4.73,3.57-7.89c0.91-3.17,1.58-6.58,1.99-10.23
			c0.42-3.66,0.62-7.04,0.62-10.17C861.69,228.06,861.48,224.81,861.07,221.33z"/>
		<path class="st2" d="M894.7,264.01v-1.34c1.11-0.09,2.03-0.27,2.78-0.54c0.75-0.27,1.12-1.02,1.12-2.27
			c0-0.54-0.37-1.76-1.12-3.68c-0.75-1.92-1.63-4.12-2.65-6.62c-1.02-2.5-2.1-5.06-3.24-7.69c-1.13-2.63-2.11-4.84-2.94-6.62
			c-0.88-1.96-1.69-2.94-2.41-2.94c-0.28,0-0.51,0.02-0.71,0.07c-0.19,0.05-0.4,0.16-0.62,0.33v26.22c0,0.8,0.14,1.43,0.42,1.87
			c0.28,0.45,0.63,0.78,1.08,1c0.44,0.22,0.94,0.38,1.49,0.47c0.55,0.09,1.11,0.22,1.66,0.4v1.34h-16.51v-1.34
			c1.27-0.18,2.42-0.51,3.44-1c1.02-0.49,1.54-1.58,1.54-3.28V182.8c0-0.71-0.03-1.27-0.08-1.67c-0.06-0.4-0.28-0.82-0.66-1.27
			c-0.39-0.45-0.98-1-1.78-1.67c-0.8-0.67-1.56-1.31-2.28-1.94v-0.8l11.03-8.16h0.66v63.95c1.6-2.14,3.34-4.57,5.23-7.29
			c1.88-2.72,3.62-5.35,5.23-7.89c1.6-2.54,2.93-4.77,3.98-6.69c1.05-1.92,1.58-3.19,1.58-3.81c0-0.62-0.22-1.14-0.66-1.54
			c-0.44-0.4-1-0.74-1.66-1c-0.66-0.27-1.38-0.49-2.16-0.67c-0.77-0.18-1.49-0.27-2.16-0.27v-1.34h20.32v1.34
			c-0.17,0-0.69,0.07-1.58,0.2c-0.88,0.13-1.92,0.45-3.11,0.94c-1.19,0.49-2.46,1.18-3.82,2.07c-1.36,0.89-2.61,2.14-3.77,3.75
			c-1.77,2.41-3.51,4.88-5.23,7.43c-1.71,2.54-3.32,4.93-4.81,7.16c2.43,5.98,4.73,11.57,6.88,16.79c2.16,5.22,4.04,9.52,5.64,12.91
			c1.94,4.1,3.57,6.96,4.89,8.56c0.44,0.18,1.13,0.36,2.07,0.54c0.94,0.18,1.94,0.27,2.99,0.27v1.34H894.7z"/>
		<path class="st2" d="M912.95,264.01v-1.34c0.66-0.09,1.33-0.2,1.99-0.33c0.66-0.13,1.26-0.36,1.78-0.67
			c0.52-0.31,0.97-0.74,1.33-1.27c0.36-0.54,0.54-1.2,0.54-2.01V212.5c0-0.71-0.04-1.34-0.12-1.87s-0.32-1.02-0.71-1.47
			c-0.5-0.54-1.09-1.07-1.78-1.61c-0.69-0.54-1.42-1.02-2.2-1.47v-0.8l11.2-5.89h0.5v59.8c0.11,0.89,0.34,1.54,0.71,1.94
			c0.36,0.4,0.79,0.69,1.29,0.87c0.5,0.18,1.04,0.29,1.62,0.33c0.58,0.05,1.15,0.16,1.7,0.33v1.34H912.95z M924.85,183.4
			c-0.86,1.38-1.92,2.07-3.19,2.07c-1.22,0-2.27-0.71-3.15-2.14c-0.89-1.43-1.33-3.12-1.33-5.08c0-2.05,0.43-3.75,1.29-5.08
			s1.92-2.01,3.19-2.01c1.27,0,2.33,0.67,3.19,2.01c0.86,1.34,1.29,3.03,1.29,5.08C926.14,180.3,925.71,182.02,924.85,183.4z"/>
		<path class="st2" d="M958.07,264.01v-1.47c1.49-0.18,2.68-0.47,3.57-0.87c0.88-0.4,1.33-1.31,1.33-2.74v-33.71
			c0-5.17-0.61-9.34-1.83-12.51c-1.22-3.17-3.26-4.75-6.14-4.75c-1.83,0-3.35,0.62-4.56,1.87c-1.22,1.25-2.57,3.08-4.06,5.49v43.88
			c0.11,0.89,0.3,1.54,0.58,1.94c0.28,0.4,0.61,0.69,1,0.87c0.39,0.18,0.83,0.29,1.33,0.33c0.5,0.05,1.02,0.16,1.58,0.33v1.34
			h-16.01v-1.34c1.27-0.18,2.36-0.58,3.28-1.2c0.91-0.62,1.37-1.65,1.37-3.08v-46.02c0-0.71-0.04-1.25-0.12-1.61
			c-0.08-0.36-0.32-0.76-0.71-1.2c-0.5-0.45-1.08-0.96-1.74-1.54c-0.66-0.58-1.33-1.09-1.99-1.54v-0.8l10.87-6.29h0.5v14.45
			l0.17,0.13c0.61-1.52,1.36-3.14,2.27-4.88c0.91-1.74,1.94-3.32,3.1-4.75c1.16-1.43,2.42-2.61,3.8-3.55c1.38-0.94,2.81-1.4,4.3-1.4
			c3.2,0,5.65,1.92,7.36,5.75c1.71,3.84,2.56,8.79,2.56,14.85v39.33c0,0.62,0.18,1.16,0.54,1.61c0.36,0.45,0.79,0.78,1.29,1
			c0.5,0.22,1.04,0.4,1.62,0.54c0.58,0.13,1.12,0.25,1.62,0.33v1.2H958.07z"/>
		<path class="st2" d="M1019.25,210.29c-0.58,1.03-1.29,1.54-2.12,1.54c-0.33,0-0.83-0.22-1.49-0.67c-0.66-0.45-1.4-0.98-2.2-1.61
			c-0.8-0.62-1.62-1.31-2.45-2.07c-0.83-0.76-1.58-1.45-2.24-2.07l-0.33,0.54c0.83,2.05,1.54,3.97,2.12,5.75
			c0.58,1.79,0.87,4.1,0.87,6.96c0,7.05-1.52,12.33-4.56,15.85c-3.04,3.52-7.25,5.28-12.61,5.28c-0.78,0-1.56-0.09-2.36-0.27
			c-0.8-0.18-1.76-0.27-2.86-0.27c-1.77,0.18-3.18,0.85-4.23,2.01c-1.05,1.16-1.58,2.63-1.58,4.42c0,1.43,0.28,2.61,0.83,3.55
			c0.55,0.94,1.24,1.67,2.07,2.21c0.83,0.54,1.74,0.89,2.74,1.07c1,0.18,1.96,0.27,2.9,0.27h13.27c1.93,0,3.68,0.49,5.23,1.47
			c1.55,0.98,2.88,2.32,3.98,4.01c1.11,1.7,1.95,3.63,2.53,5.82c0.58,2.18,0.87,4.62,0.87,7.29c0,3.48-0.54,6.8-1.62,9.97
			c-1.08,3.17-2.59,5.95-4.52,8.36c-1.94,2.41-4.22,4.3-6.84,5.68c-2.63,1.38-5.52,2.07-8.67,2.07c-6.03,0-10.71-1.45-14.06-4.35
			c-3.35-2.9-5.02-6.89-5.02-11.97c0-1.87,0.32-3.57,0.95-5.08c0.63-1.52,1.44-2.97,2.41-4.35c0.97-1.38,2.04-2.68,3.24-3.88
			c1.19-1.2,2.36-2.39,3.53-3.54v-0.27c-2.82-0.54-4.99-1.83-6.51-3.88c-1.52-2.05-2.28-4.77-2.28-8.16c0-1.69,0.25-3.3,0.75-4.82
			c0.5-1.52,1.19-2.9,2.07-4.15c0.88-1.25,1.92-2.3,3.11-3.14c1.19-0.85,2.47-1.4,3.86-1.67v-0.4c-2.43-1.52-4.33-3.75-5.68-6.69
			c-1.36-2.94-2.03-6.69-2.03-11.24c0-2.85,0.4-5.53,1.2-8.03c0.8-2.5,1.92-4.66,3.36-6.49c1.44-1.83,3.14-3.28,5.1-4.35
			c1.96-1.07,4.11-1.61,6.43-1.61c2.1,0,3.97,0.31,5.6,0.94c1.63,0.62,3.33,1.7,5.1,3.21c0.66,0.36,1.23,0.58,1.7,0.67
			c0.47,0.09,1.04,0.13,1.7,0.13c0.66,0,1.26-0.15,1.78-0.47c0.52-0.31,1.01-0.67,1.45-1.07c0.44-0.4,0.91-0.76,1.41-1.07
			c0.5-0.31,1.08-0.47,1.74-0.47c0.94,0,1.71,0.54,2.32,1.61s0.91,2.36,0.91,3.88C1020.12,208.08,1019.83,209.27,1019.25,210.29z
			 M1011.08,270.16c-0.66-1.87-1.47-3.17-2.41-3.88c-1.22-0.98-2.74-1.67-4.56-2.07c-1.82-0.4-4.34-0.6-7.55-0.6
			c-1.16,0-2.35,0.09-3.57,0.27c-1.22,0.18-2.21,0.36-2.99,0.54c-2.6,1.07-4.4,2.76-5.39,5.08c-1,2.32-1.49,4.86-1.49,7.63
			c0,2.85,0.48,5.35,1.45,7.49c0.97,2.14,2.17,3.95,3.61,5.42c1.44,1.47,2.97,2.56,4.6,3.28c1.63,0.71,3.14,1.07,4.52,1.07
			c1.66,0,3.08-0.13,4.27-0.4c1.19-0.27,2.25-0.67,3.19-1.2c1.93-1.25,3.64-3.26,5.1-6.02c1.46-2.77,2.2-6.07,2.2-9.9
			C1012.07,274.26,1011.74,272.03,1011.08,270.16z M1004.19,212.1c-0.39-2.05-0.95-3.86-1.7-5.42c-0.75-1.56-1.69-2.81-2.82-3.75
			c-1.13-0.94-2.45-1.4-3.94-1.4c-1.38,0-2.63,0.51-3.73,1.54c-1.11,1.03-2.03,2.41-2.78,4.15c-0.75,1.74-1.31,3.73-1.7,5.95
			c-0.39,2.23-0.58,4.5-0.58,6.82c0,5.35,0.84,9.66,2.53,12.91c1.69,3.26,3.75,4.88,6.18,4.88c1.49,0,2.81-0.54,3.94-1.61
			c1.13-1.07,2.09-2.5,2.86-4.28c0.77-1.78,1.35-3.81,1.74-6.09c0.39-2.27,0.58-4.66,0.58-7.16
			C1004.77,216.33,1004.58,214.15,1004.19,212.1z"/>
		<path class="st2" d="M1033.85,262.07c-0.91,1.29-2.09,1.94-3.53,1.94c-1.44,0-2.63-0.69-3.57-2.07c-0.94-1.38-1.41-3.23-1.41-5.55
			c0-2.32,0.47-4.26,1.41-5.82c0.94-1.56,2.13-2.34,3.57-2.34c1.44,0,2.61,0.83,3.53,2.48c0.91,1.65,1.37,3.64,1.37,5.95
			C1035.22,258.97,1034.76,260.77,1033.85,262.07z M1044.96,209.35c-0.08,1.92-0.22,3.81-0.42,5.69c-0.19,1.87-0.47,3.59-0.83,5.15
			c-0.36,1.56-0.82,2.74-1.37,3.55c-1.11,1.7-2.61,3.03-4.52,4.01c-1.91,0.98-4.52,2.01-7.84,3.08v10.84h-1.49v-23.41
			c1.44-0.45,2.86-0.87,4.27-1.27s2.78-0.96,4.11-1.67c1.11-0.54,2.07-1.18,2.9-1.94c0.83-0.76,1.52-1.67,2.07-2.74
			c0.55-1.07,0.95-2.36,1.2-3.88c0.25-1.52,0.37-3.39,0.37-5.62c0-2.85-0.3-5.17-0.91-6.96c-0.61-1.78-1.41-3.17-2.41-4.15
			c-1-0.98-2.12-1.63-3.36-1.94c-1.24-0.31-2.48-0.47-3.69-0.47c-0.39,0-1.02,0.05-1.91,0.13c-0.88,0.09-1.8,0.22-2.74,0.4v-20.87
			h1.41v6.56c2.49,0,4.55,0.36,6.18,1.07c1.63,0.71,3.17,2.19,4.6,4.42c1,1.43,1.78,3.17,2.36,5.22c0.58,2.05,1.04,4.21,1.37,6.49
			c0.33,2.27,0.54,4.55,0.62,6.82s0.12,4.39,0.12,6.35C1045.09,205.72,1045.05,207.44,1044.96,209.35z"/>
	</g>
	<g>
		<path class="st3" d="M225.18,120.23c-6.9-8.09-13.77-16.21-20.75-24.24c-1.47-1.69-0.56-3-0.01-4.54
			c2.68-7.43,4.31-15.04,3.86-22.99c-0.5-8.79-3.45-16.53-9.75-22.88c-9.25-9.32-19.74-10.41-30.66-3.15
			c-5.6,3.72-10.43,8.32-14.67,13.48c-1.94,2.36-2.93,2.14-4.81-0.01C137.99,44,124.65,40.1,109.26,41.76
			c-12.62,1.37-21.68,7.86-27.69,18.83c-4.38,7.99-7.15,16.47-7.21,25.68c-0.01,1.63,0.13,2.68-2.15,2.84
			c-15.05,1.08-22.66,13.29-24.78,25.4c-1.57,8.98-0.13,17.62,3.88,25.73c1.32,2.66,1.34,4.03-1.27,6.03
			c-6.11,4.68-8.63,11.21-7.95,18.92c2.29,26.08,33.59,41.79,55.75,27.96c5.11-3.19,8.32-8.07,11.46-12.99
			c12.68-19.83,26.12-39.05,43.97-54.7c8.99-7.88,18.57-14.93,30.42-20.91c-3.48,5.12-7.52,7.81-11.09,10.96
			c-19.14,16.85-35.98,35.58-47.57,58.55c-2.7,5.35-6.93,11.27-5.92,16.6c1.02,5.32,8.68,6.83,13.45,9.94
			c9.3,6.07,9.36,5.84,16.7-2.53c18.48-21.1,37.9-41.2,61.65-56.55c5.23-3.38,10.62-6.48,16.85-8.12
			c-7.19,5.99-14.46,11.89-21.55,18c-23.48,20.21-44.22,42.88-60.88,69.09c-1.71,2.7-2.77,2.87-5.3,1.23
			c-9.63-6.25-19.46-12.19-29.06-18.48c-2.47-1.62-4.24-1.71-6.64-0.05c-2.44,1.69-5.17,3.03-7.91,4.22
			c-24.79,10.8-46.39,4.24-60.96-18.52c-4.16-6.49-7.47-13.36-8.6-21.1c-1.48-10.16,1.01-19.24,7.97-26.8
			c1.91-2.08,2-3.56,1.16-6.07c-6.06-18.15-2.98-34.82,8.81-49.81c4-5.08,9.04-8.93,15.66-9.92c2.1-0.31,2.59-1.34,3.09-3.11
			c7.41-26.42,25.42-41.41,51.67-46.96c13.13-2.78,25.59-0.74,36.15,8.24c2.87,2.44,3.78-0.18,5.16-1.38
			c16.5-14.37,41.07-13.35,55.93,2.48c7.06,7.53,9.98,16.77,10.3,26.9c0.35,11.05-2.08,21.51-7.48,31.17
			c-1.36,2.44-1.5,4.35-0.13,6.84c3.69,6.7,7.08,13.55,10.59,20.35C225.58,119.89,225.38,120.06,225.18,120.23z"/>
		<path class="st3" d="M88.02,121.54c4.27-0.8,7.99,0.5,11.73,1.7c10,3.2,19.71,7.1,28.81,12.38c1.2,0.7,4.49,0.99,1.93,3.6
			c-1.63,1.66-1.99,5.8-6.24,3.28C112.24,135.39,100.1,128.51,88.02,121.54z"/>
		<path class="st3" d="M133.14,77.08c5.37,7.19,9.08,15.52,13.63,23.34c2.17,3.72,4.08,7.59,6.13,11.38
			c2.33,4.31,1.6,6.22-2.77,8.24c-1.67,0.77-2.04-0.19-2.59-1.21c-6.64-12.32-11.55-25.31-14.67-38.96
			C132.67,78.99,133.04,77.97,133.14,77.08z"/>
		<path class="st3" d="M77.84,159.75c11.12-1.29,22.26-1.7,33.41-0.61c1.38,0.13,4.42-0.27,3.69,1.83
			c-0.78,2.23-1.28,6.65-4.69,5.96c-10.78-2.19-21.79-3.53-32.24-7.21L77.84,159.75z"/>
		<path class="st3" d="M173.07,69.75c1.9,10,4.06,19.96,5.54,30.02c0.5,3.43-3.69,3.9-5.94,4.64c-2.36,0.78-1.74-2.22-1.86-3.52
			c-1-10.38-0.04-20.71,0.66-31.03C172.01,69.83,172.54,69.79,173.07,69.75z"/>
		<polygon class="st3" points="171.9,66.92 171.63,67.31 172.07,67.15 		"/>
		<path class="st3" d="M78,159.73l-0.09,0.21c0,0-0.04-0.2-0.06-0.19S78,159.73,78,159.73z"/>
	</g>
</g>
</svg>
